<svg xmlns="http://www.w3.org/2000/svg" viewBox="0 0 985.96 309.41"><defs><style>.a,.b{fill:#fff;}.b,.c{stroke:#fff;stroke-linecap:round;stroke-linejoin:round;stroke-width:30px;}.c{fill:none;}.d{fill:#6dbd87;}.e{fill:#aad190;}.f{fill:#e7ccd2;}.g{fill:#e8a8b8;}.h{fill:#b8ce0c;}.i{fill:#83bc2a;}.j{fill:#e8465c;}.k{fill:#e8a6b7;}.l{fill:#b8cd12;}.m{fill:#6dbb87;}.n{fill:#575756;}</style></defs><ellipse class="a" cx="598.47" cy="249.83" rx="27.31" ry="15.07" transform="translate(185.21 749.63) rotate(-73.07)"/><ellipse class="a" cx="283.48" cy="242.07" rx="44.09" ry="32.87" transform="translate(-30.64 442.79) rotate(-73.07)"/><ellipse class="a" cx="333.19" cy="107.42" rx="44.09" ry="32.87" transform="translate(133.41 394.89) rotate(-73.07)"/><path class="b" d="M393.45,123.48A149.69,149.69,0,0,1,402.18,100c1.45-1,10.5-5.83,16.64,2-3.07,5.85-6,12-8.54,18,19.38-6.5,38.28-20.85,34.09-32.84-1.93-5.5-11.54-6.76-26.94-1.57-24,8.09-51.52,29.31-31,52.27-37.49-20.84-8.57-59.86,31.26-65,12.84-1.66,24.06,1.93,29.89,8.55,19.9,22.62-16,50.94-41.69,50-4,11.45-6.09,21.42-4.59,26.75-11.33-1.83-12.37-15.24-8.75-30.92a19.59,19.59,0,0,1-3.94-3.79A37.64,37.64,0,0,0,393.45,123.48Z"/><path class="b" d="M465.29,106c3.88-6,12.82,2.49,10.8,5.77-1.92,3-15.86,35.18-9.48,34.26,3.13-.45,11.12-15.39,16.05-24.85,8.09-1.62-10.64,28.37-16,29-15.56,1.93-11.29-23.46-5.21-36.93a9.25,9.25,0,0,1-4.22-1.55c-2,7.25-5.74,14-8.51,17-.49.52-2.8-1.28-1.76-3.09,3.41-5.9,5.07-9.28,6.8-16.27-7.53-9.54,4.41-11.23,4.65-4.15C458.46,107,464.19,106.9,465.29,106Z"/><path class="b" d="M517.31,121.19c1.87,7.73-10.14,12.36-14.25,13l-.13,0c-4.06,5-9.17,8.33-13.76,7.18-10.89-2.72-10.65-17.66-5.79-26,7.15-12.26,14.34-12.5,20.34-10.6,9,2.88,8,14.33,3,23.71C509.32,128.39,514.51,125.45,517.31,121.19Zm-25,13.54a6.13,6.13,0,0,0,3.12-1.75,10.76,10.76,0,0,1-4.39-4.35C490.13,132.21,490.29,134.85,492.34,134.73Zm1.54-13.41c-.61,4,1.28,7.33,4.62,8.43,5.29-6.5,10.44-17.25,5.23-18.93C500.94,109.92,496.78,115.39,493.88,121.32Z"/><path class="b" d="M539.75,121.3a2.23,2.23,0,0,1,.15,3.27A121.86,121.86,0,0,1,528,132.86c8.61,11.21-4.68,26.15-12,24.92-19.36-3.11,10.68-72.07,17-83.18,3.62-4.17,14.34-2.34,16.5,2.35-7.13,13-18.51,36.78-25.94,54.37C529,128.9,536.12,123.34,539.75,121.3Zm-23.52,31.53c2,2.79,16.53-12.09,6.36-19.31C518.44,143.49,515.77,151.08,516.23,152.83Z"/><path class="b" d="M571,125.72c-4.59,8.35-17.8,21.33-24.24,20.14-22.58-4.17-7.63-45.59,11.69-43.3,16.67,2,6.2,25.27-9.88,22.18-3.93,9.14-5.83,16.86.65,15.51,4.39-.91,12.44-7.38,21.52-18.92A4.29,4.29,0,0,1,571,125.72Zm-20.55-5c7.22-.29,13.18-14.37,9.12-13.18C557.74,108,553.79,113.92,550.47,120.67Z"/><path class="b" d="M580.75,106.66c-13.46,8,5.57,13.08,11.12,22.31,5-1,7-4.32,9-7.19.89-1.32,3.11,1.36,2.21,2.68-2.28,3.36-2.83,5.79-10.11,7.92,1.69,17.59-22.09,30.6-28.66,20.36C560,142.15,576,136.69,581.35,134.1c-2.68-7.37-18.59-7.43-13.42-20.78,3.42-8.83,14.8-13.07,22.24-12.68,14.59.76,3.05,16.54-2.09,15.49C594,106.72,586.63,103.17,580.75,106.66ZM580.52,141a13.54,13.54,0,0,0,1.07-3.16c-6.69,2.7-20.7,11.77-11.45,13.26C573.18,151.56,578.12,146.09,580.52,141Z"/><path class="b" d="M635.39,121.19c1.87,7.73-10.14,12.36-14.25,13l-.13,0c-4.06,5-9.17,8.33-13.76,7.18-10.89-2.72-10.65-17.66-5.79-26,7.15-12.26,14.34-12.5,20.34-10.6,9.05,2.88,8,14.33,3,23.71C627.4,128.39,632.59,125.45,635.39,121.19Zm-25,13.54a6.11,6.11,0,0,0,3.13-1.75,10.76,10.76,0,0,1-4.39-4.35C608.21,132.21,608.37,134.85,610.41,134.73ZM612,121.32c-.61,4,1.28,7.33,4.62,8.43,5.28-6.5,10.44-17.25,5.23-18.93C619,109.92,614.86,115.39,612,121.32Z"/><path class="b" d="M649.07,106c3.89-6,12.83,2.49,10.81,5.77C658,114.8,644,147,650.39,146c3.13-.45,11.12-15.39,16.06-24.85,8.08-1.62-10.65,28.37-16,29-15.56,1.93-11.29-23.46-5.21-36.93a9.21,9.21,0,0,1-4.21-1.55c-2,7.25-5.74,14-8.52,17-.49.52-2.8-1.28-1.75-3.09,3.41-5.9,5.06-9.28,6.8-16.27-7.53-9.54,4.4-11.23,4.65-4.15C642.25,107,648,106.9,649.07,106Z"/><path class="b" d="M697.24,109.81a15.13,15.13,0,0,1-.28,2.85,8.54,8.54,0,0,1,6.14,4.4c-4.34,10.64-6.76,16.39-6.76,17.82q0,.36.21.36a.76.76,0,0,0,.41-.19c1.34-.93,2.94-.13,12.53-13.86.45.32,1.18.94,1.18,1.56,0,4.46-7.93,15.65-13.87,15.65h-.19c-.06,0,.41.12.35.12-8.61-1.38-11.49-5.33-11.49-10.53,0-.35,0-.71,0-1.07-4.77,8.17-10.37,18.11-14.57,18.11a2.36,2.36,0,0,1-.75-.12c-4.35-1.38-6.2-5.62-6.2-10.94,0-13.5,10.37-32.37,25.12-32.37C695.3,101.71,697.24,105.63,697.24,109.81Zm-24.57,30c1.66,0,7.93-12.29,16.3-25a6.65,6.65,0,0,1,3.86-2.13c-.14-1.71,0-3.53-2.08-3.53-5.75,0-18.6,21.19-18.6,29.1C672.15,138.76,672.2,139.82,672.67,139.82Z"/><path class="b" d="M733.58,151.81c0,1.12.3,1.73.95,1.73a2,2,0,0,0,.82-.23c4.53-2.13,12.79-21.32,18.39-32.12a8,8,0,0,1,1.14,3.93,5.65,5.65,0,0,1-.61,2.6c-6.4,13.21-14.22,30.14-19.17,30.14l-.28,0c-6.76-.78-9.34-6.31-9.34-14.15a53.29,53.29,0,0,1,.94-9.31c-3.89,5.59-8,11-11.62,11a3.37,3.37,0,0,1-1-.16c-5.29-1.67-7.61-7.5-7.61-14.37,0-11.82,6.88-26.69,17.34-28.54a19.33,19.33,0,0,1,3.83-.42c4.12,0,6.32,1.77,7.36,4.28,5.07-13.59,10.66-25.72,12.53-30.25a8.2,8.2,0,0,1,6.36-2.44c4.14,0,8.6,2,9.77,4.7C755.84,94.75,733.58,142.17,733.58,151.81Zm-4.18-42.35c-4.68,0-13.86,20.43-13.86,28.35a6,6,0,0,0,.22,1.77c.14.49.37.73.7.73,1.57,0,5.36-5.38,12-15.39.28-1,2.85-8.14,2.85-12.35,0-1.8-.47-3.07-1.79-3.11Z"/><path class="b" d="M788.12,121.19c1.87,7.73-10.14,12.36-14.24,13l-.13,0c-4.07,5-9.18,8.33-13.77,7.18-10.89-2.72-10.65-17.66-5.79-26,7.15-12.26,14.34-12.5,20.34-10.6,9.05,2.88,8,14.33,3,23.71C780.13,128.39,785.33,125.45,788.12,121.19Zm-25,13.54a6.13,6.13,0,0,0,3.12-1.75,10.88,10.88,0,0,1-4.39-4.35C761,132.21,761.1,134.85,763.15,134.73Zm1.54-13.41c-.61,4,1.28,7.33,4.62,8.43,5.29-6.5,10.44-17.25,5.23-18.93C771.75,109.92,767.6,115.39,764.69,121.32Z"/><path class="b" d="M852.23,125.72c-4.59,8.35-17.8,21.33-24.24,20.14-22.58-4.17-7.63-45.59,11.69-43.3,16.66,2,6.2,25.27-9.89,22.18-3.93,9.14-5.82,16.86.65,15.51,4.4-.91,12.45-7.38,21.53-18.92A4.31,4.31,0,0,1,852.23,125.72Zm-20.55-5c7.22-.29,13.17-14.37,9.11-13.18C839,108,835,113.92,831.68,120.67Z"/><path class="b" d="M856.91,105.69c3.41-6.17,15.07-4.07,14.85,1.11-2,2.87-9.73,19.43-11.57,22.26,5.74-6.68,8.68-9.4,13.69-12.89,4.44-4,14.31-1.44,10.83,6.58-4.33,10.26-4.9,13.94-3.17,13.59,3-.59,11.18-12.29,13.87-15.15,3.31,2.68-9.13,17.76-12.18,18.31-10,1.85-12.22-7.43-11.48-15.15.54-5.62-18.18,20.18-18.81,21.14C840.74,142.19,853.76,111.88,856.91,105.69Z"/><path class="b" d="M241,242.67a196.6,196.6,0,0,1,12.5-29.38c1.89-1.25,13.52-7.29,20.67,2.5-4.34,7.49-8.49,15.37-12.15,23.08,24.83-7.83,49.76-26.28,44.39-41.64-2.41-6.87-14.43-8.44-33.68-2-30,10.12-64.4,36.64-38.8,65.35-46.86-26.06-10.71-74.83,39.07-81.25,16.06-2.07,30.08,2.42,37.37,10.7,23.31,26.49-14.67,59.24-45.93,62.25,10.78,21.82,33.15,25.94,39.74,20.89.45,12.49-34.32,30-49.68-16.91-4.86,12.7-7.44,23.58-6.05,29.64C234.11,283.61,234,266.15,240,246a24.13,24.13,0,0,1-3.3-3.46C238.06,242.66,239.51,242.7,241,242.67Z"/><path class="b" d="M321.48,257c2.15.94,8.73-5.44,16.3-17.21,6.33,3.33-13.56,25.23-17.91,24-17.76-5.21-5-30.77-1.16-40.82,3.36-7.6,17,.35,14.44,6.21C326.14,246.24,318.87,255.8,321.48,257Zm19-45.28c0,4-3.87,7.16-8.63,7.16s-8.63-3.2-8.63-7.16,3.86-7.16,8.63-7.16S340.46,207.71,340.46,211.67Z"/><path class="b" d="M369,206.81l25.6.11c1.9,0,.13,6.66-2.5,6.66l-26.15.07c-12.94,29.12-30.2,70-22.56,66.32,5.58-2.7,15.83-26.78,22.88-40.23,2.84,0,3.18,2.93,1.67,6-8.27,16.83-19.17,40.61-25.31,39.89-21.25-2.48-9.24-42.12,2.55-72H332.59c-5.14,0-1.78-7.06.85-7.06l14.5.22c4.47-10.86,6.66-14.8,8.33-18.88,4.87-5.54,18.38-10.27,22.11-2C377.7,187.62,373.9,195.86,369,206.81Z"/><path class="b" d="M359.72,259.08c0-8.44,4.76-20.94,10.95-33.09a11.55,11.55,0,0,1,7.3-2.36c4.09,0,7.82,1.78,7.82,4.29s-1.94,4.09-4.85,9.75c6.63-7.64,15.87-19.48,18.64-22.25a8.31,8.31,0,0,1,5.92-2.56c4,0,7.57,3,7.57,6.91a7.26,7.26,0,0,1-.66,3c-.56,1.26-5.12,14-5.74,15.1,3-3.65,9.55-10,15.63-10.34l.71,0c4.81,0,8.21,2.81,8.21,6.11a5.33,5.33,0,0,1-.64,2.49c-3.87,7.34-8.42,16.1-8.42,19.89a3,3,0,0,0,.17,1.07,1.37,1.37,0,0,0,1.36.93c3.42,0,11.59-8.68,16.37-18.24,1.6.38,2.75,1.29,2.34,3.16-1.65,7.4-11.77,19.54-20.11,19.54H422c-6.08-.25-11.3-4.34-11.3-12.52a31.22,31.22,0,0,1,3-12.29c-15.07,12.6-16.58,24.63-19.73,25.6-3.76-.78-6-3.19-6-8.4,0-5.65,2.62-14.61,8.74-28.37-7.54,8.17-25.65,33.34-30.37,42.3-.26-.14-.76.58-2.91-.83C360.82,266.25,359.72,263.13,359.72,259.08Z"/><path class="b" d="M482.71,239.74c2.33,9.66-12.68,15.45-17.81,16.2l-.16,0c-5.08,6.3-11.47,10.41-17.2,9-13.62-3.4-13.32-22.08-7.25-32.5,8.95-15.33,17.93-15.63,25.43-13.25,11.32,3.6,10,17.92,3.71,29.64C472.72,248.73,479.21,245.07,482.71,239.74Zm-31.22,16.92a7.55,7.55,0,0,0,3.9-2.19,13.45,13.45,0,0,1-5.48-5.43C448.74,253.51,448.93,256.81,451.49,256.66Zm1.93-16.76c-.76,5,1.6,9.16,5.78,10.54,6.6-8.13,13.05-21.57,6.53-23.67C462.24,225.65,457.05,232.48,453.42,239.9Z"/><path class="b" d="M493.71,221.58c-16.83,10,7,16.34,13.89,27.88,6.27-1.22,8.77-5.39,11.2-9,1.12-1.64,3.89,1.7,2.77,3.36-2.85,4.2-3.54,7.24-12.64,9.9,2.12,22-27.62,38.25-35.83,25.44-5.3-13.22,14.63-20.05,21.36-23.29-3.35-9.22-23.24-9.3-16.78-26,4.28-11,18.5-16.34,27.81-15.86,18.22,1,3.81,20.68-2.62,19.37C510.25,221.65,501.06,217.22,493.71,221.58Zm-.29,42.89a16.84,16.84,0,0,0,1.33-4c-8.36,3.38-25.87,14.73-14.31,16.58C484.24,277.71,490.41,270.87,493.42,264.47Z"/><path class="b" d="M618.26,178.74c23.86-.45,18.17,38.64-5.63,45.38,6.21-13.32,20-38.48,10.39-37.62-28.15,2.55-73.86,94.82-32.63,96.74,9.8.46,26.35-17.34,40.18-43.15,5,11.93-26.89,51.07-42.68,49.08C527.66,281.57,565.86,179.73,618.26,178.74Z"/><path class="b" d="M666.14,225.52a20.34,20.34,0,0,1-.34,3.56,10.65,10.65,0,0,1,7.66,5.49c-5.42,13.3-8.44,20.5-8.44,22.29,0,.3.08.44.25.44a1.06,1.06,0,0,0,.53-.24c1.66-1.16,3.66-.16,15.66-17.32.55.39,1.47,1.18,1.47,1.95,0,5.58-9.92,19.56-17.33,19.56h-.25c-.08,0,.52.16.45.15-10.77-1.72-14.38-6.66-14.38-13.16,0-.44,0-.89.05-1.34-6,10.21-13,22.63-18.22,22.63a3,3,0,0,1-.94-.14c-5.43-1.72-7.74-7-7.74-13.68,0-16.87,13-40.46,31.4-40.46C663.71,215.38,666.14,220.28,666.14,225.52ZM635.42,263c2.08,0,9.92-15.37,20.38-31.29a8.24,8.24,0,0,1,4.83-2.66c-.18-2.14.06-4.42-2.6-4.42-7.19,0-23.25,26.5-23.25,36.38C634.78,261.7,634.84,263,635.42,263Z"/><path class="b" d="M700.22,220.76c4.86-7.53,16,3.11,13.51,7.21-2.4,3.78-19.84,44-11.86,42.84,3.91-.56,13.91-19.24,20.07-31.07,10.11-2-13.31,35.46-20,36.29-19.45,2.41-14.11-29.33-6.51-46.17a11.65,11.65,0,0,1-5.27-1.93c-2.45,9.06-7.18,17.48-10.65,21.21-.61.65-3.5-1.6-2.19-3.86,4.27-7.37,6.33-11.6,8.5-20.34-9.41-11.93,5.51-14,5.82-5.19C691.69,222,698.85,221.87,700.22,220.76Z"/><path class="b" d="M730.47,257c2.15.94,8.73-5.44,16.29-17.21,6.33,3.33-13.56,25.23-17.91,24-17.75-5.21-5-30.77-1.16-40.82,3.36-7.6,17,.35,14.44,6.21C735.12,246.24,727.85,255.8,730.47,257Zm19-45.28c0,4-3.86,7.16-8.62,7.16s-8.64-3.2-8.64-7.16,3.87-7.16,8.64-7.16S749.44,207.71,749.44,211.67Z"/><path class="b" d="M742.41,248.75c0-20.17,17.28-56.36,22.84-67,2-2.07,5.08-3,8.29-3,5.05,0,10.32,2.25,11.54,5.82a479.7,479.7,0,0,0-26.66,52.31c6.33-10.88,15.11-19.82,22.36-19.82a8.09,8.09,0,0,1,2.8.49c5.93,2.26,8.19,6.33,8.19,11.49,0,4-1.33,8.58-3.36,13.5a40.54,40.54,0,0,1,9.83-2.5,2,2,0,0,1-.17,2.5c-1.16,1.5-6.49,3.17-12.16,5.33C775.57,268.32,764.18,275,757,275c-4.51,0-7.4-2.61-7.4-6.13a9.51,9.51,0,0,1,2.54-6c4.33-5.34,13.33-10.33,19.49-13.33,4.92-10.11,8.36-20.32,8.36-24.11,0-1-.22-1.51-.69-1.55H779c-8.92,0-26.92,34-29.06,38.33C744.5,260.85,742.41,255.77,742.41,248.75Z"/><path class="b" d="M836.72,245.4c-5.74,10.44-22.25,26.66-30.3,25.17-28.23-5.2-9.54-57,14.61-54.12,20.83,2.47,7.75,31.58-12.36,27.73-4.91,11.43-7.27,21.07.82,19.39,5.49-1.14,15.56-9.23,26.9-23.65C837.25,240.75,837.79,243.47,836.72,245.4ZM811,239.09c9-.37,16.47-18,11.4-16.48C820.12,223.29,815.19,230.65,811,239.09Z"/><path class="b" d="M842.57,220.36c4.27-7.72,18.84-5.08,18.56,1.39-2.48,3.58-12.15,24.29-14.46,27.82,7.17-8.34,10.86-11.75,17.12-16.1,5.55-5,17.88-1.8,13.53,8.22-5.41,12.82-6.12,17.42-4,17,3.72-.74,14-15.36,17.34-18.94,4.13,3.35-11.42,22.19-15.23,22.89-12.53,2.31-15.28-9.3-14.35-18.94.67-7-22.72,25.23-23.51,26.43C822.36,266,838.63,228.1,842.57,220.36ZM874,201.88c2.26,1.85,4.67,3.82,12.54-2.87,11.86-10,3.13,24.63-16.39,8.67-2-1.61-3.83-3.13-10,2.71C849.55,220.46,855.45,186.68,874,201.88Z"/><path class="b" d="M931.85,239.74c2.33,9.66-12.68,15.45-17.81,16.2l-.17,0c-5.08,6.3-11.46,10.41-17.2,9-13.62-3.4-13.32-22.08-7.24-32.5,8.94-15.33,17.93-15.63,25.42-13.25,11.32,3.6,10,17.92,3.72,29.64C921.85,248.73,928.35,245.07,931.85,239.74Zm-31.23,16.92c1-.06,2.41-.87,3.91-2.19A13.48,13.48,0,0,1,899,249C897.87,253.51,898.06,256.81,900.62,256.66Zm1.93-16.76c-.75,5,1.61,9.16,5.78,10.54,6.61-8.13,13-21.57,6.54-23.67C911.38,225.65,906.18,232.48,902.55,239.9Z"/><path class="b" d="M942.84,221.58c-16.83,10,7,16.34,13.9,27.88,6.26-1.22,8.77-5.39,11.2-9,1.12-1.64,3.88,1.7,2.76,3.36-2.85,4.2-3.54,7.24-12.63,9.9,2.11,22-27.62,38.25-35.83,25.44-5.3-13.22,14.63-20.05,21.36-23.29-3.35-9.22-23.24-9.3-16.78-26,4.27-11,18.49-16.34,27.8-15.86,18.23,1,3.81,20.68-2.62,19.37C959.38,221.65,950.2,217.22,942.84,221.58Zm-.29,42.89a16.91,16.91,0,0,0,1.34-4c-8.37,3.38-25.88,14.73-14.31,16.58C933.38,277.71,939.55,270.87,942.55,264.47Z"/><path class="b" d="M152.47,132.28s-4.79.57-4.79,3.15c0,0,.14,15.6,4.79,26.77,0,0,2.37,10.05,3.15,11,0,0,7.22-18.2,7.39-18.55S153.59,145.74,152.47,132.28Z"/><path class="b" d="M152.47,162.2,70,247.51s-11.26,13.17-4.64,27.91c0,0,7.46,21.48,26.32,18.76,0,0,10.58.71,16.2-10.6,0,0,5-11-3.25-18.61,0,0-10.7-7.15-20.69,3.3,0,0-4.8,4.79-.57,15.46,0,0,1,2.43-2.39,1.71,0,0-10.7-4.43-12.1-16.46,0,0-1-10.88,5.06-17.61l80.34-82.15Z"/><path class="b" d="M127.14,248.25s-22.77,1.88-35.39-15.1c0,0-10.79-10.26-5.16-27.44,0,0,5.35-17.46,23.09-16.31,0,0,19.42-.72,21.67,19.18,0,0,.57,24.33-21.11,20.47,0,0-4.22,1.43-.71,3.29,0,0,9,5.1,22.53-4,0,0,9-3.84,12.38-21.31,0,0,3.1-16.6-12.1-28.91,0,0-21-15.89-42.23,4,0,0-14.64,13.31-11.26,33.92,0,0,2,16.18,13,24.62a39.76,39.76,0,0,0,30.05,12.42Z"/><path class="b" d="M145.31,135.85S136.16,111.34,158.12,93c0,0,15.34-12.31,36.17-8.45,0,0,15.24,3.33,20.55,12.6,0,0,.71,1.71-13.37,5,0,0-7.74,2.29-13.37-3.58,0,0-9.43-4.73-16.89-1.86,0,0-15.34,3.29-22.1,30.92,0,0-.28-4.73-.28-10.88C148.83,116.78,145,128.15,145.31,135.85Z"/><path class="b" d="M214.3,97.9a2.94,2.94,0,0,0-3.12,0S203.16,99,192,93c0,0-15.2-6.73-23.65-2.29a4.26,4.26,0,0,1,3,1s-15.62,5-16.75,12.45c0,0,1.55-.86,2.39-1.29,0,0-2.39,3.38-1.4,4.87a1.22,1.22,0,0,0,2,0s8.3-12,20.26-12c0,0,7.85.43,11.53,4,0,0,5.66,4.66,16,1.47s.63-.18.63-.18S212.2,99.22,214.3,97.9Z"/><ellipse class="b" cx="177.53" cy="110.15" rx="5.12" ry="5.21"/><path class="b" d="M176.64,105.33a5,5,0,0,1,5.49,2.43,5.12,5.12,0,0,1-.71,5.58s-1.54.14-3.09-3.51C178.33,109.83,177.48,105.47,176.64,105.33Z"/><path class="b" d="M241.31,99.74s-59,13.46-75.37,46.81c0,0-12.1,21-13.51,36.79,0,0-6.48,30.63-8.73,30.63a125.56,125.56,0,0,0,15.48-31.49s-1.12,44.66-48.7,78.16c0,0,75.17-16.89,76.57-91,0,0-5.63,20.32-7.6,22C179.45,191.64,173.38,129.52,241.31,99.74Z"/><path class="b" d="M135.54,250.75s-2.26,1.58,2-5.57c0,0,25.33-15.75,29.84-32.07,0,0,9.29-26.05,11.54-52.67,0,0-2-1.72-5.91,12,0,0,4.22-34.93,22.52-47.52,0,0,9.22-6.28,16.58-7.15,0,0-29,18.88-32.63,73.85,0,0,6.76-15.74,7.6-22C187.05,169.6,189.31,224,135.54,250.75Z"/><path class="b" d="M16.74,15S2.1,60.81,57.84,100.89c0,0-24.78-8.59-37.44-28.06,0,0,6.19,28.06,29.27,37.22,0,0,17.46,9.16,35.47,12.88,0,0,44.77,10.31,55.18,24,0,0-2.25-35.5-64.75-70.14C75.57,76.84,21.24,49.64,16.74,15Z"/><path class="b" d="M16.74,15s-.85,30.78,69,67.42c0,0,48.06,28.92,54.53,63.84,0,0-12.59-19.18-15.54-19.32,0,0,7.46,13,6.75,17.32,0,0-3.65-13.31-36.73-31.06,0,0-29.56-11.6-34.07-19.75,0,0,9.43,4.86,14.22,6.87,0,0-14.36-9-15.48-12.6,0,0,10.69,6.15,16.46,7.16,0,0-35.47-21.62-38.28-29.35,0,0-18.09-28.31-17.74-34.35C19.83,31.18,15.89,19.29,16.74,15Z"/><path class="b" d="M33.35,107.76s17.17,16.89,50.67,22c0,0,41.1,8,51.52,24.34,0,0-20.27,6.87-51.1-1.15,0,0,17.88,10,39.84,8.88C124.28,161.87,49.11,180.19,33.35,107.76Z"/><path class="b" d="M33.35,107.76s21.39,18.89,50.67,22c0,0,40.54,7.45,51.52,24.34,0,0-60.25-2.58-69-15.18,0,0,11.27,2.58,16.33,1.72C82.89,140.68,43.2,128.37,33.35,107.76Z"/><path class="b" d="M235.77,30c1.11-.93,4.78,4,12.9,7.75a48.76,48.76,0,0,0,11.72,3.58c6.61,1.19,7.05,0,10.56,1.19C279,45.4,282.5,54,282.67,54.48c.67,1.72,1.07,3.45,1.17,14.91.08,8.15,1.86,11,0,12.79s-5.65,1.55-7.58-.27c-2.64-2.5,0-6.57-2.93-10.14-1.65-2-4.71-3.41-6.45-2.38-1.56.93-1.79,3.66-1.62,5.25.25,2.27,1.41,3.11,1,3.69C265.2,80,256,73.48,253.36,76c-1.54,1.46-.65,6,1.76,8.34,2.13,2.11,4.05,1.15,6.45,3,3.37,2.59,4.95,8.66,2.93,11.33-2.74,3.62-11.78.66-16.42-1.79a24.56,24.56,0,0,1-11.14-11.33c-4.13-9.07-1.07-18.69,0-22.05,1.92-6,4.09-7.32,4.11-12.53,0-3.76-1.1-7.34-2.35-11.32C236.71,33.2,235,30.69,235.77,30Z"/><path class="b" d="M223.46,160.61c-2.05-2.52,5-7.84,4.1-15.51-.71-6.38-6.07-6.94-7-13.71s3.65-12.82,5.27-14.9c5.41-6.92,12.77-8.87,17.59-10.14,10-2.64,21.24-1.79,21.69.6.29,1.48-3.62,3.57-5.86,4.77-6.15,3.28-9.86,2.53-10.55,4.77-.62,2,1.64,4.85,4.1,6,3.56,1.6,7-.7,7.18-.86,1.84-1.29,2.1-2.84,2.79-2.72,1.79.32,1,11.13,2.34,11.33,1,.14,1.22-5.16,5.28-8.35,2.27-1.78,6.07-3.17,7.62-1.79,1.93,1.72-1.23,6.27-3.52,17.89-1.37,7-.5,6.77-1.75,10.73-1,3-3.43,10.46-10.56,15.5a21.19,21.19,0,0,1-10.55,4.18,17.74,17.74,0,0,1-8.79-1.2c-4.59-1.95-4.34-4.42-8.21-6C229.11,159,225.06,162.57,223.46,160.61Z"/><path class="b" d="M309.05,176.11c-.47-.16-.15-1.32-.69-3.24a11,11,0,0,0-4-5.71c-3.48-2.4-6.34.89-12.31,0-4-.59-8.95-3-11.14-7.15-1.6-3.06-.39-4.59-.58-13.12,0-1.43-.42-5.32-1.18-13.11-1.24-12.72-1.68-15.63,0-16.7s5.23.38,7,2.39c2,2.2,1.09,3.94,2.93,8.34.68,1.64,3,7.25,5.86,7.16,2.24-.07,4-3.66,4.69-6,1-3.39-.46-4.4.59-7.16,1.42-3.73,4.91-6.16,3.37-.76-.46,1.62.43-3.66.08-2.7s1.15-.49,10,6.44A60.22,60.22,0,0,1,324.3,135c3.85,4.94,7.15,9.17,6.45,14.31-.56,4-3.35,6.94-5.28,8.94-3.43,3.57-4.79,2.77-8.21,6C311.59,169.48,310.2,176.48,309.05,176.11Z"/><path class="b" d="M362.41,122.45c.39-3.07-2.36-4.15-8.21-12.52-5.34-7.63-4.22-8.42-6.78-10.22-5.48-3.88-9.31.68-21.36-1.11-8.35-1.24-11.62-4.18-15.83-1.79-2.67,1.52-5,4.77-4.3,7,1,3.32,7.87,2,9.57,6.09.95,2.23.07,5.49-1.76,6.56-4.09,2.39-12.33-6.6-12.89-6s9.2,17,24,19.07c3.85.54,5.23-.26,14.07.6,6.82.66,8.71,1.41,12.32.6C355.45,129.86,361.83,126.86,362.41,122.45Z"/><path class="b" d="M333.68,15.73c1.47.35,1.28,3.67,2.93,10.73,1.34,5.73,2.05,8.63,4.1,10.73,2.48,2.53,4.08,1.57,8.21,4.18a22.41,22.41,0,0,1,10,24.44,24.7,24.7,0,0,1-7,11.92,32.14,32.14,0,0,1-9.38,6.56,35.7,35.7,0,0,1-10.55,3c-11.19,1.68-16-1.59-19.93,2.07-2.39,2.24-1.69,4.52-4.18,5.64-3.66,1.65-9.61-1.32-9.84-4.16s4.93-3.4,7.57-9.51c.21-.49,2-4.66.58-6-1.22-1.12-4.44.25-6.45,1.79-3.23,2.47-3.21,5.27-4.69,5.36-2.2.15-5-6-5.86-11.92-.23-1.55-.43-3.81,1.17-15.5,1-7,1.46-10.53,2.35-12.52a26.81,26.81,0,0,1,10-11.33c2.14-1.39,6.7-2.91,15.82-6,4.95-1.66,6.9-2.17,9.38-4.18C331.33,18.26,332.26,15.39,333.68,15.73Z"/><path class="b" d="M334.31,15.94c.58,0,.91,2.25,2.17,8,1.3,6,1.28,7,2.11,8.65s.68,4.67,6.61,7C355,43.43,354,45.3,355.35,47.4c1.6,2.55,4.22,5.51,4.12,13.81s-3.71,11.62-4.11,12.4c-1.76,3.42-4.52,5.39-7.43,7.47a34.9,34.9,0,0,1-8.1,4.3c-2.47.93-4,3.15-14.19,2.4-6.18-.45-8.05,1.19-9.56-.21s3-2.5,4.68-2.81c20.45-3.9,4.64-1.41,10.08-1.39,6.24,0,4-3.06,6.53-3.81,4.7-1.4,7.28-2.16,9.21-4.68,1.21-1.58,1.68-4,2.55-8.84,1-5.54,1.52-8.32,1-10.39-.8-3.41-3.09-5.57-7.66-9.88-5.46-5.14-7.61-5.39-9.72-9.36a18.94,18.94,0,0,1-2-7.28C330,22.34,333,15.86,334.31,15.94Z"/><path class="b" d="M316.87,96.42c0-.06.7-.14,2.1.3a54.44,54.44,0,0,0,5.86,1.68c4.94.73,11.18-.14,12-.19,6.07-.35,6.67-.67,9,.61,1.43.78,3.35.29,5.28,5.24,1.4,3.62,1.23,2.71,3,5.87,2.43,4.29,6.14,2.07,7.95,8.78a7.59,7.59,0,0,1-.09,5c-1.51,6.28-2.51,3.35-4.44,4.56-2.14,1.35-3.41,1.84-4,2.31-2.83,2.21-5.44.34-11.66-.05a45.29,45.29,0,0,0-12.24.62c-2.18.06-4.59-1.75-6.76-1.92-1.69-.12-2.75-.19-3.26-1-.63-1,2.67-.81,3.72-1.74,1.51-1.32,2.7-2,7.43-1.25,3.21.49.35-.23,6.29.3,5.07.46,7.12,1,11.24.78,3-.12,4.44-.49,5.63-1.56a6.72,6.72,0,0,0,2-4.42c.17-2.76-1.49-4.82-3.32-7-1.54-1.84-2.41-2.34-6.9-6-5.52-4.47-5.09-4.45-6.14-4.94-4.09-2-5.69,0-11.5-1C321.75,100.24,316.79,96.59,316.87,96.42Z"/><path class="b" d="M309.05,176.11c.58.16,2-1.87,4.64-5.74a42.26,42.26,0,0,1,7.15-7.63c4.94-4.36,5.32-4.59,7.42-7.73a13.41,13.41,0,0,0,2.57-7.6c0-1.28,1.28-3-3.68-10.81a35,35,0,0,0-7.47-8.34c-4-3.58-5.47-2.13-9.56-6.1-1.34-1.31-4.28-3.91-6.68-4.28-1.33-.21,1.23,3.09,1,3.79-.13.41-.16-.4,2.82,1.76,2.62,1.88,1.8,2,3.77,3.18,3.34,2.07,5.11,3.17,6.91,5.2a37.18,37.18,0,0,1,3.57,5.72c2.05,3.61,3.07,5.42,3.58,7.28.65,2.35,1.41,5.15.26,7.8-.45,1-.94,1.48-6.9,6-3.84,2.9-4.42,3.3-5.37,4.42a18.43,18.43,0,0,0-3.32,6C308.68,172.21,308.43,175.92,309.05,176.11Z"/><path class="a" d="M301.53,101.32a6,6,0,0,0-2.21-3.18,6.46,6.46,0,0,0-3.26-1.06c-3.08-.34-4.86.92-5.6,0a2.09,2.09,0,0,1-.13-1.72c.29-1.37,1.27-1.79,1.95-2.79a5.83,5.83,0,0,0,.26-5.43c-1.41-3-5.33-3.28-6.12-3.31s-3.71-.12-4.69,1.59c-.73,1.27.36,2.32,0,5.43-.05.46-.35,3.07-1.17,3.18-.58.08-.86-1.17-2.22-2.91-1-1.24-2.36-3-4.56-3.45A5.42,5.42,0,0,0,267.53,92c-.15,1.17.24,2.06,1,3.85a16.49,16.49,0,0,0,2.48,4.1c1.47,1.78,2.37,2.08,2.34,3.05,0,.22-.07.64-1.69,2.38s-2,1.77-2.48,2.52c-1,1.6-.53,3.54-.26,4.77a7.81,7.81,0,0,0,3.13,5.17c1.49,1,4,1.65,5.34.53.77-.65.5-1.38,1.3-4.24.72-2.56,1.11-3.94,2.09-4.24,1.18-.37,2.73,1,3.51,2.12,1.3,1.86.42,3,1.57,4.9.93,1.58,3,3.26,5.08,2.92a4.59,4.59,0,0,0,2.87-2,5.75,5.75,0,0,0,.52-4.77c-.42-1.26-.94-1.24-2-3.18-.63-1.19-1.54-2.92-1-3.45s2.23,1.06,5.47,1.33c1.32.11,2.52.21,3.52-.53C302.07,106,302.09,103.14,301.53,101.32Z"/><path class="c" d="M301.53,101.32a6,6,0,0,0-2.21-3.18,6.46,6.46,0,0,0-3.26-1.06c-3.08-.34-4.86.92-5.6,0a2.09,2.09,0,0,1-.13-1.72c.29-1.37,1.27-1.79,1.95-2.79a5.83,5.83,0,0,0,.26-5.43c-1.41-3-5.33-3.28-6.12-3.31s-3.71-.12-4.69,1.59c-.73,1.27.36,2.32,0,5.43-.05.46-.35,3.07-1.17,3.18-.58.08-.86-1.17-2.22-2.91-1-1.24-2.36-3-4.56-3.45A5.42,5.42,0,0,0,267.53,92c-.15,1.17.24,2.06,1,3.85a16.49,16.49,0,0,0,2.48,4.1c1.47,1.78,2.37,2.08,2.34,3.05,0,.22-.07.64-1.69,2.38s-2,1.77-2.48,2.52c-1,1.6-.53,3.54-.26,4.77a7.81,7.81,0,0,0,3.13,5.17c1.49,1,4,1.65,5.34.53.77-.65.5-1.38,1.3-4.24.72-2.56,1.11-3.94,2.09-4.24,1.18-.37,2.73,1,3.51,2.12,1.3,1.86.42,3,1.57,4.9.93,1.58,3,3.26,5.08,2.92a4.59,4.59,0,0,0,2.87-2,5.75,5.75,0,0,0,.52-4.77c-.42-1.26-.94-1.24-2-3.18-.63-1.19-1.54-2.92-1-3.45s2.23,1.06,5.47,1.33c1.32.11,2.52.21,3.52-.53C302.07,106,302.09,103.14,301.53,101.32Z"/><ellipse class="a" cx="283.34" cy="99.72" rx="6.15" ry="6.26"/><ellipse class="c" cx="283.34" cy="99.72" rx="6.15" ry="6.26"/><ellipse class="b" cx="283.34" cy="98.71" rx="3.05" ry="3.11"/><path class="d" d="M152.47,132.28s-4.79.57-4.79,3.15c0,0,.14,15.6,4.79,26.77,0,0,2.37,10.05,3.15,11,0,0,7.22-18.2,7.39-18.55S153.59,145.74,152.47,132.28Z"/><path class="d" d="M152.47,162.2,70,247.51s-11.26,13.17-4.64,27.91c0,0,7.46,21.48,26.32,18.76,0,0,10.58.71,16.2-10.6,0,0,5-11-3.25-18.61,0,0-10.7-7.15-20.69,3.3,0,0-4.8,4.79-.57,15.46,0,0,1,2.43-2.39,1.71,0,0-10.7-4.43-12.1-16.46,0,0-1-10.88,5.06-17.61l80.34-82.15Z"/><path class="d" d="M127.14,248.25s-22.77,1.88-35.39-15.1c0,0-10.79-10.26-5.16-27.44,0,0,5.35-17.46,23.09-16.31,0,0,19.42-.72,21.67,19.18,0,0,.57,24.33-21.11,20.47,0,0-4.22,1.43-.71,3.29,0,0,9,5.1,22.53-4,0,0,9-3.84,12.38-21.31,0,0,3.1-16.6-12.1-28.91,0,0-21-15.89-42.23,4,0,0-14.64,13.31-11.26,33.92,0,0,2,16.18,13,24.62a39.76,39.76,0,0,0,30.05,12.42Z"/><path class="e" d="M145.31,135.85S136.16,111.34,158.12,93c0,0,15.34-12.31,36.17-8.45,0,0,15.24,3.33,20.55,12.6,0,0,.71,1.71-13.37,5,0,0-7.74,2.29-13.37-3.58,0,0-9.43-4.73-16.89-1.86,0,0-15.34,3.29-22.1,30.92,0,0-.28-4.73-.28-10.88C148.83,116.78,145,128.15,145.31,135.85Z"/><path class="d" d="M214.3,97.9a2.94,2.94,0,0,0-3.12,0S203.16,99,192,93c0,0-15.2-6.73-23.65-2.29a4.26,4.26,0,0,1,3,1s-15.62,5-16.75,12.45c0,0,1.55-.86,2.39-1.29,0,0-2.39,3.38-1.4,4.87a1.22,1.22,0,0,0,2,0s8.3-12,20.26-12c0,0,7.85.43,11.53,4,0,0,5.66,4.66,16,1.47s.63-.18.63-.18S212.2,99.22,214.3,97.9Z"/><ellipse class="e" cx="177.53" cy="110.15" rx="5.12" ry="5.21"/><path class="d" d="M176.64,105.33a5,5,0,0,1,5.49,2.43,5.12,5.12,0,0,1-.71,5.58s-1.54.14-3.09-3.51C178.33,109.83,177.48,105.47,176.64,105.33Z"/><path class="f" d="M241.31,99.74s-59,13.46-75.37,46.81c0,0-12.1,21-13.51,36.79,0,0-6.48,30.63-8.73,30.63a125.56,125.56,0,0,0,15.48-31.49s-1.12,44.66-48.7,78.16c0,0,75.17-16.89,76.57-91,0,0-5.63,20.32-7.6,22C179.45,191.64,173.38,129.52,241.31,99.74Z"/><path class="g" d="M135.54,250.75s-2.26,1.58,2-5.57c0,0,25.33-15.75,29.84-32.07,0,0,9.29-26.05,11.54-52.67,0,0-2-1.72-5.91,12,0,0,4.22-34.93,22.52-47.52,0,0,9.22-6.28,16.58-7.15,0,0-29,18.88-32.63,73.85,0,0,6.76-15.74,7.6-22C187.05,169.6,189.31,224,135.54,250.75Z"/><path class="f" d="M16.74,15S2.1,60.81,57.84,100.89c0,0-24.78-8.59-37.44-28.06,0,0,6.19,28.06,29.27,37.22,0,0,17.46,9.16,35.47,12.88,0,0,44.77,10.31,55.18,24,0,0-2.25-35.5-64.75-70.14C75.57,76.84,21.24,49.64,16.74,15Z"/><path class="g" d="M16.74,15s-.85,30.78,69,67.42c0,0,48.06,28.92,54.53,63.84,0,0-12.59-19.18-15.54-19.32,0,0,7.46,13,6.75,17.32,0,0-3.65-13.31-36.73-31.06,0,0-29.56-11.6-34.07-19.75,0,0,9.43,4.86,14.22,6.87,0,0-14.36-9-15.48-12.6,0,0,10.69,6.15,16.46,7.16,0,0-35.47-21.62-38.28-29.35,0,0-18.09-28.31-17.74-34.35C19.83,31.18,15.89,19.29,16.74,15Z"/><path class="h" d="M33.35,107.76s17.17,16.89,50.67,22c0,0,41.1,8,51.52,24.34,0,0-20.27,6.87-51.1-1.15,0,0,17.88,10,39.84,8.88C124.28,161.87,49.11,180.19,33.35,107.76Z"/><path class="i" d="M33.35,107.76s21.39,18.89,50.67,22c0,0,40.54,7.45,51.52,24.34,0,0-60.25-2.58-69-15.18,0,0,11.27,2.58,16.33,1.72C82.89,140.68,43.2,128.37,33.35,107.76Z"/><path class="j" d="M235.77,30c1.11-.93,4.78,4,12.9,7.75a48.76,48.76,0,0,0,11.72,3.58c6.61,1.19,7.05,0,10.56,1.19C279,45.4,282.5,54,282.67,54.48c.67,1.72,1.07,3.45,1.17,14.91.08,8.15,1.86,11,0,12.79s-5.65,1.55-7.58-.27c-2.64-2.5,0-6.57-2.93-10.14-1.65-2-4.71-3.41-6.45-2.38-1.56.93-1.79,3.66-1.62,5.25.25,2.27,1.41,3.11,1,3.69C265.2,80,256,73.48,253.36,76c-1.54,1.46-.65,6,1.76,8.34,2.13,2.11,4.05,1.15,6.45,3,3.37,2.59,4.95,8.66,2.93,11.33-2.74,3.62-11.78.66-16.42-1.79a24.56,24.56,0,0,1-11.14-11.33c-4.13-9.07-1.07-18.69,0-22.05,1.92-6,4.09-7.32,4.11-12.53,0-3.76-1.1-7.34-2.35-11.32C236.71,33.2,235,30.69,235.77,30Z"/><path class="j" d="M223.46,160.61c-2.05-2.52,5-7.84,4.1-15.51-.71-6.38-6.07-6.94-7-13.71s3.65-12.82,5.27-14.9c5.41-6.92,12.77-8.87,17.59-10.14,10-2.64,21.24-1.79,21.69.6.29,1.48-3.62,3.57-5.86,4.77-6.15,3.28-9.86,2.53-10.55,4.77-.62,2,1.64,4.85,4.1,6,3.56,1.6,7-.7,7.18-.86,1.84-1.29,2.1-2.84,2.79-2.72,1.79.32,1,11.13,2.34,11.33,1,.14,1.22-5.16,5.28-8.35,2.27-1.78,6.07-3.17,7.62-1.79,1.93,1.72-1.23,6.27-3.52,17.89-1.37,7-.5,6.77-1.75,10.73-1,3-3.43,10.46-10.56,15.5a21.19,21.19,0,0,1-10.55,4.18,17.74,17.74,0,0,1-8.79-1.2c-4.59-1.95-4.34-4.42-8.21-6C229.11,159,225.06,162.57,223.46,160.61Z"/><path class="j" d="M309.05,176.11c-.47-.16-.15-1.32-.69-3.24a11,11,0,0,0-4-5.71c-3.48-2.4-6.34.89-12.31,0-4-.59-8.95-3-11.14-7.15-1.6-3.06-.39-4.59-.58-13.12,0-1.43-.42-5.32-1.18-13.11-1.24-12.72-1.68-15.63,0-16.7s5.23.38,7,2.39c2,2.2,1.09,3.94,2.93,8.34.68,1.64,3,7.25,5.86,7.16,2.24-.07,4-3.66,4.69-6,1-3.39-.46-4.4.59-7.16,1.42-3.73,4.91-6.16,3.37-.76-.46,1.62.43-3.66.08-2.7s1.15-.49,10,6.44A60.22,60.22,0,0,1,324.3,135c3.85,4.94,7.15,9.17,6.45,14.31-.56,4-3.35,6.94-5.28,8.94-3.43,3.57-4.79,2.77-8.21,6C311.59,169.48,310.2,176.48,309.05,176.11Z"/><path class="j" d="M362.41,122.45c.39-3.07-2.36-4.15-8.21-12.52-5.34-7.63-4.22-8.42-6.78-10.22-5.48-3.88-9.31.68-21.36-1.11-8.35-1.24-11.62-4.18-15.83-1.79-2.67,1.52-5,4.77-4.3,7,1,3.32,7.87,2,9.57,6.09.95,2.23.07,5.49-1.76,6.56-4.09,2.39-12.33-6.6-12.89-6s9.2,17,24,19.07c3.85.54,5.23-.26,14.07.6,6.82.66,8.71,1.41,12.32.6C355.45,129.86,361.83,126.86,362.41,122.45Z"/><path class="j" d="M333.68,15.73c1.47.35,1.28,3.67,2.93,10.73,1.34,5.73,2.05,8.63,4.1,10.73,2.48,2.53,4.08,1.57,8.21,4.18a22.41,22.41,0,0,1,10,24.44,24.7,24.7,0,0,1-7,11.92,32.14,32.14,0,0,1-9.38,6.56,35.7,35.7,0,0,1-10.55,3c-11.19,1.68-16-1.59-19.93,2.07-2.39,2.24-1.69,4.52-4.18,5.64-3.66,1.65-9.61-1.32-9.84-4.16s4.93-3.4,7.57-9.51c.21-.49,2-4.66.58-6-1.22-1.12-4.44.25-6.45,1.79-3.23,2.47-3.21,5.27-4.69,5.36-2.2.15-5-6-5.86-11.92-.23-1.55-.43-3.81,1.17-15.5,1-7,1.46-10.53,2.35-12.52a26.81,26.81,0,0,1,10-11.33c2.14-1.39,6.7-2.91,15.82-6,4.95-1.66,6.9-2.17,9.38-4.18C331.33,18.26,332.26,15.39,333.68,15.73Z"/><path class="k" d="M334.31,15.94c.58,0,.91,2.25,2.17,8,1.3,6,1.28,7,2.11,8.65s.68,4.67,6.61,7C355,43.43,354,45.3,355.35,47.4c1.6,2.55,4.22,5.51,4.12,13.81s-3.71,11.62-4.11,12.4c-1.76,3.42-4.52,5.39-7.43,7.47a34.9,34.9,0,0,1-8.1,4.3c-2.47.93-4,3.15-14.19,2.4-6.18-.45-8.05,1.19-9.56-.21s3-2.5,4.68-2.81c20.45-3.9,4.64-1.41,10.08-1.39,6.24,0,4-3.06,6.53-3.81,4.7-1.4,7.28-2.16,9.21-4.68,1.21-1.58,1.68-4,2.55-8.84,1-5.54,1.52-8.32,1-10.39-.8-3.41-3.09-5.57-7.66-9.88-5.46-5.14-7.61-5.39-9.72-9.36a18.94,18.94,0,0,1-2-7.28C330,22.34,333,15.86,334.31,15.94Z"/><path class="k" d="M316.87,96.42c0-.06.7-.14,2.1.3a54.44,54.44,0,0,0,5.86,1.68c4.94.73,11.18-.14,12-.19,6.07-.35,6.67-.67,9,.61,1.43.78,3.35.29,5.28,5.24,1.4,3.62,1.23,2.71,3,5.87,2.43,4.29,6.14,2.07,7.95,8.78a7.59,7.59,0,0,1-.09,5c-1.51,6.28-2.51,3.35-4.44,4.56-2.14,1.35-3.41,1.84-4,2.31-2.83,2.21-5.44.34-11.66-.05a45.29,45.29,0,0,0-12.24.62c-2.18.06-4.59-1.75-6.76-1.92-1.69-.12-2.75-.19-3.26-1-.63-1,2.67-.81,3.72-1.74,1.51-1.32,2.7-2,7.43-1.25,3.21.49.35-.23,6.29.3,5.07.46,7.12,1,11.24.78,3-.12,4.44-.49,5.63-1.56a6.72,6.72,0,0,0,2-4.42c.17-2.76-1.49-4.82-3.32-7-1.54-1.84-2.41-2.34-6.9-6-5.52-4.47-5.09-4.45-6.14-4.94-4.09-2-5.69,0-11.5-1C321.75,100.24,316.79,96.59,316.87,96.42Z"/><path class="k" d="M309.05,176.11c.58.16,2-1.87,4.64-5.74a42.26,42.26,0,0,1,7.15-7.63c4.94-4.36,5.32-4.59,7.42-7.73a13.41,13.41,0,0,0,2.57-7.6c0-1.28,1.28-3-3.68-10.81a35,35,0,0,0-7.47-8.34c-4-3.58-5.47-2.13-9.56-6.1-1.34-1.31-4.28-3.91-6.68-4.28-1.33-.21,1.23,3.09,1,3.79-.13.41-.16-.4,2.82,1.76,2.62,1.88,1.8,2,3.77,3.18,3.34,2.07,5.11,3.17,6.91,5.2a37.18,37.18,0,0,1,3.57,5.72c2.05,3.61,3.07,5.42,3.58,7.28.65,2.35,1.41,5.15.26,7.8-.45,1-.94,1.48-6.9,6-3.84,2.9-4.42,3.3-5.37,4.42a18.43,18.43,0,0,0-3.32,6C308.68,172.21,308.43,175.92,309.05,176.11Z"/><path class="l" d="M301.53,101.32a6,6,0,0,0-2.21-3.18,6.46,6.46,0,0,0-3.26-1.06c-3.08-.34-4.86.92-5.6,0a2.09,2.09,0,0,1-.13-1.72c.29-1.37,1.27-1.79,1.95-2.79a5.83,5.83,0,0,0,.26-5.43c-1.41-3-5.33-3.28-6.12-3.31s-3.71-.12-4.69,1.59c-.73,1.27.36,2.32,0,5.43-.05.46-.35,3.07-1.17,3.18-.58.08-.86-1.17-2.22-2.91-1-1.24-2.36-3-4.56-3.45A5.42,5.42,0,0,0,267.53,92c-.15,1.17.24,2.06,1,3.85a16.49,16.49,0,0,0,2.48,4.1c1.47,1.78,2.37,2.08,2.34,3.05,0,.22-.07.64-1.69,2.38s-2,1.77-2.48,2.52c-1,1.6-.53,3.54-.26,4.77a7.81,7.81,0,0,0,3.13,5.17c1.49,1,4,1.65,5.34.53.77-.65.5-1.38,1.3-4.24.72-2.56,1.11-3.94,2.09-4.24,1.18-.37,2.73,1,3.51,2.12,1.3,1.86.42,3,1.57,4.9.93,1.58,3,3.26,5.08,2.92a4.59,4.59,0,0,0,2.87-2,5.75,5.75,0,0,0,.52-4.77c-.42-1.26-.94-1.24-2-3.18-.63-1.19-1.54-2.92-1-3.45s2.23,1.06,5.47,1.33c1.32.11,2.52.21,3.52-.53C302.07,106,302.09,103.14,301.53,101.32ZM283.34,106a6.26,6.26,0,1,1,6.15-6.26A6.21,6.21,0,0,1,283.34,106Z"/><ellipse class="m" cx="283.34" cy="98.71" rx="3.05" ry="3.11"/><path class="n" d="M393.45,123.48A149.69,149.69,0,0,1,402.18,100c1.45-1,10.5-5.83,16.64,2-3.07,5.85-6,12-8.54,18,19.38-6.5,38.28-20.85,34.09-32.84-1.93-5.5-11.54-6.76-26.94-1.57-24,8.09-51.52,29.31-31,52.27-37.49-20.84-8.57-59.86,31.26-65,12.84-1.66,24.06,1.93,29.89,8.55,19.9,22.62-16,50.94-41.69,50-4,11.45-6.09,21.42-4.59,26.75-11.33-1.83-12.37-15.24-8.75-30.92a19.59,19.59,0,0,1-3.94-3.79A37.64,37.64,0,0,0,393.45,123.48Z"/><path class="n" d="M465.29,106c3.88-6,12.82,2.49,10.8,5.77-1.92,3-15.86,35.18-9.48,34.26,3.13-.45,11.12-15.39,16.05-24.85,8.09-1.62-10.64,28.37-16,29-15.56,1.93-11.29-23.46-5.21-36.93a9.25,9.25,0,0,1-4.22-1.55c-2,7.25-5.74,14-8.51,17-.49.52-2.8-1.28-1.76-3.09,3.41-5.9,5.07-9.28,6.8-16.27-7.53-9.54,4.41-11.23,4.65-4.15C458.46,107,464.19,106.9,465.29,106Z"/><path class="n" d="M517.31,121.19c1.87,7.73-10.14,12.36-14.25,13l-.13,0c-4.06,5-9.17,8.33-13.76,7.18-10.89-2.72-10.65-17.66-5.79-26,7.15-12.26,14.34-12.5,20.34-10.6,9,2.88,8,14.33,3,23.71C509.32,128.39,514.51,125.45,517.31,121.19Zm-25,13.54a6.13,6.13,0,0,0,3.12-1.75,10.76,10.76,0,0,1-4.39-4.35C490.13,132.21,490.29,134.85,492.34,134.73Zm1.54-13.41c-.61,4,1.28,7.33,4.62,8.43,5.29-6.5,10.44-17.25,5.23-18.93C500.94,109.92,496.78,115.39,493.88,121.32Z"/><path class="n" d="M539.75,121.3a2.23,2.23,0,0,1,.15,3.27A121.86,121.86,0,0,1,528,132.86c8.61,11.21-4.68,26.15-12,24.92-19.36-3.11,10.68-72.07,17-83.18,3.62-4.17,14.34-2.34,16.5,2.35-7.13,13-18.51,36.78-25.94,54.37C529,128.9,536.12,123.34,539.75,121.3Zm-23.52,31.53c2,2.79,16.53-12.09,6.36-19.31C518.44,143.49,515.77,151.08,516.23,152.83Z"/><path class="n" d="M571,125.72c-4.59,8.35-17.8,21.33-24.24,20.14-22.58-4.17-7.63-45.59,11.69-43.3,16.67,2,6.2,25.27-9.88,22.18-3.93,9.14-5.83,16.86.65,15.51,4.39-.91,12.44-7.38,21.52-18.92A4.29,4.29,0,0,1,571,125.72Zm-20.55-5c7.22-.29,13.18-14.37,9.12-13.18C557.74,108,553.79,113.92,550.47,120.67Z"/><path class="n" d="M580.75,106.66c-13.46,8,5.57,13.08,11.12,22.31,5-1,7-4.32,9-7.19.89-1.32,3.11,1.36,2.21,2.68-2.28,3.36-2.83,5.79-10.11,7.92,1.69,17.59-22.09,30.6-28.66,20.36C560,142.15,576,136.69,581.35,134.1c-2.68-7.37-18.59-7.43-13.42-20.78,3.42-8.83,14.8-13.07,22.24-12.68,14.59.76,3.05,16.54-2.09,15.49C594,106.72,586.63,103.17,580.75,106.66ZM580.52,141a13.54,13.54,0,0,0,1.07-3.16c-6.69,2.7-20.7,11.77-11.45,13.26C573.18,151.56,578.12,146.09,580.52,141Z"/><path class="n" d="M635.39,121.19c1.87,7.73-10.14,12.36-14.25,13l-.13,0c-4.06,5-9.17,8.33-13.76,7.18-10.89-2.72-10.65-17.66-5.79-26,7.15-12.26,14.34-12.5,20.34-10.6,9.05,2.88,8,14.33,3,23.71C627.4,128.39,632.59,125.45,635.39,121.19Zm-25,13.54a6.11,6.11,0,0,0,3.13-1.75,10.76,10.76,0,0,1-4.39-4.35C608.21,132.21,608.37,134.85,610.41,134.73ZM612,121.32c-.61,4,1.28,7.33,4.62,8.43,5.28-6.5,10.44-17.25,5.23-18.93C619,109.92,614.86,115.39,612,121.32Z"/><path class="n" d="M649.07,106c3.89-6,12.83,2.49,10.81,5.77C658,114.8,644,147,650.39,146c3.13-.45,11.12-15.39,16.06-24.85,8.08-1.62-10.65,28.37-16,29-15.56,1.93-11.29-23.46-5.21-36.93a9.21,9.21,0,0,1-4.21-1.55c-2,7.25-5.74,14-8.52,17-.49.52-2.8-1.28-1.75-3.09,3.41-5.9,5.06-9.28,6.8-16.27-7.53-9.54,4.4-11.23,4.65-4.15C642.25,107,648,106.9,649.07,106Z"/><path class="n" d="M697.24,109.81a15.13,15.13,0,0,1-.28,2.85,8.54,8.54,0,0,1,6.14,4.4c-4.34,10.64-6.76,16.39-6.76,17.82q0,.36.21.36a.76.76,0,0,0,.41-.19c1.34-.93,2.94-.13,12.53-13.86.45.32,1.18.94,1.18,1.56,0,4.46-7.93,15.65-13.87,15.65h-.19c-.06,0,.41.12.35.12-8.61-1.38-11.49-5.33-11.49-10.53,0-.35,0-.71,0-1.07-4.77,8.17-10.37,18.11-14.57,18.11a2.36,2.36,0,0,1-.75-.12c-4.35-1.38-6.2-5.62-6.2-10.94,0-13.5,10.37-32.37,25.12-32.37C695.3,101.71,697.24,105.63,697.24,109.81Zm-24.57,30c1.66,0,7.93-12.29,16.3-25a6.65,6.65,0,0,1,3.86-2.13c-.14-1.71,0-3.53-2.08-3.53-5.75,0-18.6,21.19-18.6,29.1C672.15,138.76,672.2,139.82,672.67,139.82Z"/><path class="n" d="M733.58,151.81c0,1.12.3,1.73.95,1.73a2,2,0,0,0,.82-.23c4.53-2.13,12.79-21.32,18.39-32.12a8,8,0,0,1,1.14,3.93,5.65,5.65,0,0,1-.61,2.6c-6.4,13.21-14.22,30.14-19.17,30.14l-.28,0c-6.76-.78-9.34-6.31-9.34-14.15a53.29,53.29,0,0,1,.94-9.31c-3.89,5.59-8,11-11.62,11a3.37,3.37,0,0,1-1-.16c-5.29-1.67-7.61-7.5-7.61-14.37,0-11.82,6.88-26.69,17.34-28.54a19.33,19.33,0,0,1,3.83-.42c4.12,0,6.32,1.77,7.36,4.28,5.07-13.59,10.66-25.72,12.53-30.25a8.2,8.2,0,0,1,6.36-2.44c4.14,0,8.6,2,9.77,4.7C755.84,94.75,733.58,142.17,733.58,151.81Zm-4.18-42.35c-4.68,0-13.86,20.43-13.86,28.35a6,6,0,0,0,.22,1.77c.14.49.37.73.7.73,1.57,0,5.36-5.38,12-15.39.28-1,2.85-8.14,2.85-12.35,0-1.8-.47-3.07-1.79-3.11Z"/><path class="n" d="M788.12,121.19c1.87,7.73-10.14,12.36-14.24,13l-.13,0c-4.07,5-9.18,8.33-13.77,7.18-10.89-2.72-10.65-17.66-5.79-26,7.15-12.26,14.34-12.5,20.34-10.6,9.05,2.88,8,14.33,3,23.71C780.13,128.39,785.33,125.45,788.12,121.19Zm-25,13.54a6.13,6.13,0,0,0,3.12-1.75,10.88,10.88,0,0,1-4.39-4.35C761,132.21,761.1,134.85,763.15,134.73Zm1.54-13.41c-.61,4,1.28,7.33,4.62,8.43,5.29-6.5,10.44-17.25,5.23-18.93C771.75,109.92,767.6,115.39,764.69,121.32Z"/><path class="n" d="M852.23,125.72c-4.59,8.35-17.8,21.33-24.24,20.14-22.58-4.17-7.63-45.59,11.69-43.3,16.66,2,6.2,25.27-9.89,22.18-3.93,9.14-5.82,16.86.65,15.51,4.4-.91,12.45-7.38,21.53-18.92A4.31,4.31,0,0,1,852.23,125.72Zm-20.55-5c7.22-.29,13.17-14.37,9.11-13.18C839,108,835,113.92,831.68,120.67Z"/><path class="n" d="M856.91,105.69c3.41-6.17,15.07-4.07,14.85,1.11-2,2.87-9.73,19.43-11.57,22.26,5.74-6.68,8.68-9.4,13.69-12.89,4.44-4,14.31-1.44,10.83,6.58-4.33,10.26-4.9,13.94-3.17,13.59,3-.59,11.18-12.29,13.87-15.15,3.31,2.68-9.13,17.76-12.18,18.31-10,1.85-12.22-7.43-11.48-15.15.54-5.62-18.18,20.18-18.81,21.14C840.74,142.19,853.76,111.88,856.91,105.69Z"/><path class="n" d="M241,242.67a196.6,196.6,0,0,1,12.5-29.38c1.89-1.25,13.52-7.29,20.67,2.5-4.34,7.49-8.49,15.37-12.15,23.08,24.83-7.83,49.76-26.28,44.39-41.64-2.41-6.87-14.43-8.44-33.68-2-30,10.12-64.4,36.64-38.8,65.35-46.86-26.06-10.71-74.83,39.07-81.25,16.06-2.07,30.08,2.42,37.37,10.7,23.31,26.49-14.67,59.24-45.93,62.25,10.78,21.82,33.15,25.94,39.74,20.89.45,12.49-34.32,30-49.68-16.91-4.86,12.7-7.44,23.58-6.05,29.64C234.11,283.61,234,266.15,240,246a24.13,24.13,0,0,1-3.3-3.46C238.06,242.66,239.51,242.7,241,242.67Z"/><path class="n" d="M321.48,257c2.15.94,8.73-5.44,16.3-17.21,6.33,3.33-13.56,25.23-17.91,24-17.76-5.21-5-30.77-1.16-40.82,3.36-7.6,17,.35,14.44,6.21C326.14,246.24,318.87,255.8,321.48,257Zm19-45.28c0,4-3.87,7.16-8.63,7.16s-8.63-3.2-8.63-7.16,3.86-7.16,8.63-7.16S340.46,207.71,340.46,211.67Z"/><path class="n" d="M369,206.81l25.6.11c1.9,0,.13,6.66-2.5,6.66l-26.15.07c-12.94,29.12-30.2,70-22.56,66.32,5.58-2.7,15.83-26.78,22.88-40.23,2.84,0,3.18,2.93,1.67,6-8.27,16.83-19.17,40.61-25.31,39.89-21.25-2.48-9.24-42.12,2.55-72H332.59c-5.14,0-1.78-7.06.85-7.06l14.5.22c4.47-10.86,6.66-14.8,8.33-18.88,4.87-5.54,18.38-10.27,22.11-2C377.7,187.62,373.9,195.86,369,206.81Z"/><path class="n" d="M359.72,259.08c0-8.44,4.76-20.94,10.95-33.09a11.55,11.55,0,0,1,7.3-2.36c4.09,0,7.82,1.78,7.82,4.29s-1.94,4.09-4.85,9.75c6.63-7.64,15.87-19.48,18.64-22.25a8.31,8.31,0,0,1,5.92-2.56c4,0,7.57,3,7.57,6.91a7.26,7.26,0,0,1-.66,3c-.56,1.26-5.12,14-5.74,15.1,3-3.65,9.55-10,15.63-10.34l.71,0c4.81,0,8.21,2.81,8.21,6.11a5.33,5.33,0,0,1-.64,2.49c-3.87,7.34-8.42,16.1-8.42,19.89a3,3,0,0,0,.17,1.07,1.37,1.37,0,0,0,1.36.93c3.42,0,11.59-8.68,16.37-18.24,1.6.38,2.75,1.29,2.34,3.16-1.65,7.4-11.77,19.54-20.11,19.54H422c-6.08-.25-11.3-4.34-11.3-12.52a31.22,31.22,0,0,1,3-12.29c-15.07,12.6-16.58,24.63-19.73,25.6-3.76-.78-6-3.19-6-8.4,0-5.65,2.62-14.61,8.74-28.37-7.54,8.17-25.65,33.34-30.37,42.3-.26-.14-.76.58-2.91-.83C360.82,266.25,359.72,263.13,359.72,259.08Z"/><path class="n" d="M482.71,239.74c2.33,9.66-12.68,15.45-17.81,16.2l-.16,0c-5.08,6.3-11.47,10.41-17.2,9-13.62-3.4-13.32-22.08-7.25-32.5,8.95-15.33,17.93-15.63,25.43-13.25,11.32,3.6,10,17.92,3.71,29.64C472.72,248.73,479.21,245.07,482.71,239.74Zm-31.22,16.92a7.55,7.55,0,0,0,3.9-2.19,13.45,13.45,0,0,1-5.48-5.43C448.74,253.51,448.93,256.81,451.49,256.66Zm1.93-16.76c-.76,5,1.6,9.16,5.78,10.54,6.6-8.13,13.05-21.57,6.53-23.67C462.24,225.65,457.05,232.48,453.42,239.9Z"/><path class="n" d="M493.71,221.58c-16.83,10,7,16.34,13.89,27.88,6.27-1.22,8.77-5.39,11.2-9,1.12-1.64,3.89,1.7,2.77,3.36-2.85,4.2-3.54,7.24-12.64,9.9,2.12,22-27.62,38.25-35.83,25.44-5.3-13.22,14.63-20.05,21.36-23.29-3.35-9.22-23.24-9.3-16.78-26,4.28-11,18.5-16.34,27.81-15.86,18.22,1,3.81,20.68-2.62,19.37C510.25,221.65,501.06,217.22,493.71,221.58Zm-.29,42.89a16.84,16.84,0,0,0,1.33-4c-8.36,3.38-25.87,14.73-14.31,16.58C484.24,277.71,490.41,270.87,493.42,264.47Z"/><path class="n" d="M618.26,178.74c23.86-.45,18.17,38.64-5.63,45.38,6.21-13.32,20-38.48,10.39-37.62-28.15,2.55-73.86,94.82-32.63,96.74,9.8.46,26.35-17.34,40.18-43.15,5,11.93-26.89,51.07-42.68,49.08C527.66,281.57,565.86,179.73,618.26,178.74Z"/><path class="n" d="M666.14,225.52a20.34,20.34,0,0,1-.34,3.56,10.65,10.65,0,0,1,7.66,5.49c-5.42,13.3-8.44,20.5-8.44,22.29,0,.3.08.44.25.44a1.06,1.06,0,0,0,.53-.24c1.66-1.16,3.66-.16,15.66-17.32.55.39,1.47,1.18,1.47,1.95,0,5.58-9.92,19.56-17.33,19.56h-.25c-.08,0,.52.16.45.15-10.77-1.72-14.38-6.66-14.38-13.16,0-.44,0-.89.05-1.34-6,10.21-13,22.63-18.22,22.63a3,3,0,0,1-.94-.14c-5.43-1.72-7.74-7-7.74-13.68,0-16.87,13-40.46,31.4-40.46C663.71,215.38,666.14,220.28,666.14,225.52ZM635.42,263c2.08,0,9.92-15.37,20.38-31.29a8.24,8.24,0,0,1,4.83-2.66c-.18-2.14.06-4.42-2.6-4.42-7.19,0-23.25,26.5-23.25,36.38C634.78,261.7,634.84,263,635.42,263Z"/><path class="n" d="M700.22,220.76c4.86-7.53,16,3.11,13.51,7.21-2.4,3.78-19.84,44-11.86,42.84,3.91-.56,13.91-19.24,20.07-31.07,10.11-2-13.31,35.46-20,36.29-19.45,2.41-14.11-29.33-6.51-46.17a11.65,11.65,0,0,1-5.27-1.93c-2.45,9.06-7.18,17.48-10.65,21.21-.61.65-3.5-1.6-2.19-3.86,4.27-7.37,6.33-11.6,8.5-20.34-9.41-11.93,5.51-14,5.82-5.19C691.69,222,698.85,221.87,700.22,220.76Z"/><path class="n" d="M730.47,257c2.15.94,8.73-5.44,16.29-17.21,6.33,3.33-13.56,25.23-17.91,24-17.75-5.21-5-30.77-1.16-40.82,3.36-7.6,17,.35,14.44,6.21C735.12,246.24,727.85,255.8,730.47,257Zm19-45.28c0,4-3.86,7.16-8.62,7.16s-8.64-3.2-8.64-7.16,3.87-7.16,8.64-7.16S749.44,207.71,749.44,211.67Z"/><path class="n" d="M742.41,248.75c0-20.17,17.28-56.36,22.84-67,2-2.07,5.08-3,8.29-3,5.05,0,10.32,2.25,11.54,5.82a479.7,479.7,0,0,0-26.66,52.31c6.33-10.88,15.11-19.82,22.36-19.82a8.09,8.09,0,0,1,2.8.49c5.93,2.26,8.19,6.33,8.19,11.49,0,4-1.33,8.58-3.36,13.5a40.54,40.54,0,0,1,9.83-2.5,2,2,0,0,1-.17,2.5c-1.16,1.5-6.49,3.17-12.16,5.33C775.57,268.32,764.18,275,757,275c-4.51,0-7.4-2.61-7.4-6.13a9.51,9.51,0,0,1,2.54-6c4.33-5.34,13.33-10.33,19.49-13.33,4.92-10.11,8.36-20.32,8.36-24.11,0-1-.22-1.51-.69-1.55H779c-8.92,0-26.92,34-29.06,38.33C744.5,260.85,742.41,255.77,742.41,248.75Z"/><path class="n" d="M836.72,245.4c-5.74,10.44-22.25,26.66-30.3,25.17-28.23-5.2-9.54-57,14.61-54.12,20.83,2.47,7.75,31.58-12.36,27.73-4.91,11.43-7.27,21.07.82,19.39,5.49-1.14,15.56-9.23,26.9-23.65C837.25,240.75,837.79,243.47,836.72,245.4ZM811,239.09c9-.37,16.47-18,11.4-16.48C820.12,223.29,815.19,230.65,811,239.09Z"/><path class="n" d="M842.57,220.36c4.27-7.72,18.84-5.08,18.56,1.39-2.48,3.58-12.15,24.29-14.46,27.82,7.17-8.34,10.86-11.75,17.12-16.1,5.55-5,17.88-1.8,13.53,8.22-5.41,12.82-6.12,17.42-4,17,3.72-.74,14-15.36,17.34-18.94,4.13,3.35-11.42,22.19-15.23,22.89-12.53,2.31-15.28-9.3-14.35-18.94.67-7-22.72,25.23-23.51,26.43C822.36,266,838.63,228.1,842.57,220.36ZM874,201.88c2.26,1.85,4.67,3.82,12.54-2.87,11.86-10,3.13,24.63-16.39,8.67-2-1.61-3.83-3.13-10,2.71C849.55,220.46,855.45,186.68,874,201.88Z"/><path class="n" d="M931.85,239.74c2.33,9.66-12.68,15.45-17.81,16.2l-.17,0c-5.08,6.3-11.46,10.41-17.2,9-13.62-3.4-13.32-22.08-7.24-32.5,8.94-15.33,17.93-15.63,25.42-13.25,11.32,3.6,10,17.92,3.72,29.64C921.85,248.73,928.35,245.07,931.85,239.74Zm-31.23,16.92c1-.06,2.41-.87,3.91-2.19A13.48,13.48,0,0,1,899,249C897.87,253.51,898.06,256.81,900.62,256.66Zm1.93-16.76c-.75,5,1.61,9.16,5.78,10.54,6.61-8.13,13-21.57,6.54-23.67C911.38,225.65,906.18,232.48,902.55,239.9Z"/><path class="n" d="M942.84,221.58c-16.83,10,7,16.34,13.9,27.88,6.26-1.22,8.77-5.39,11.2-9,1.12-1.64,3.88,1.7,2.76,3.36-2.85,4.2-3.54,7.24-12.63,9.9,2.11,22-27.62,38.25-35.83,25.44-5.3-13.22,14.63-20.05,21.36-23.29-3.35-9.22-23.24-9.3-16.78-26,4.27-11,18.49-16.34,27.8-15.86,18.23,1,3.81,20.68-2.62,19.37C959.38,221.65,950.2,217.22,942.84,221.58Zm-.29,42.89a16.91,16.91,0,0,0,1.34-4c-8.37,3.38-25.88,14.73-14.31,16.58C933.38,277.71,939.55,270.87,942.55,264.47Z"/></svg>