<svg xmlns="http://www.w3.org/2000/svg" viewBox="0 0 964.96 288.25"><defs><style>.cls-1{fill:#6dbd87;}.cls-2{fill:#aad190;}.cls-3{fill:#e7ccd2;}.cls-4{fill:#e8a8b8;}.cls-5{fill:#b8ce0c;}.cls-6{fill:#83bc2a;}.cls-7{fill:#e8465c;}.cls-8{fill:#e8a6b7;}.cls-9{fill:#b8cd12;}.cls-10{fill:#6dbb87;}.cls-11{fill:#575756;}</style></defs><g id="zunzun"><path class="cls-1" d="M190,508.16s-4.78.57-4.78,3.15c0,0,.14,15.6,4.78,26.76,0,0,2.38,10,3.16,11,0,0,7.22-18.2,7.39-18.55S191.11,521.61,190,508.16Z" transform="translate(-52.52 -390.88)"/><path class="cls-1" d="M190,538.07,107.5,623.39s-11.26,13.17-4.65,27.91c0,0,7.46,21.47,26.33,18.75,0,0,10.58.72,16.2-10.59,0,0,5.05-11-3.25-18.61,0,0-10.7-7.16-20.7,3.29,0,0-4.79,4.79-.56,15.46,0,0,1,2.44-2.39,1.72,0,0-10.7-4.44-12.11-16.46,0,0-1-10.88,5.07-17.61l80.34-82.15Z" transform="translate(-52.52 -390.88)"/><path class="cls-1" d="M164.66,624.12S141.88,626,129.27,609c0,0-10.79-10.25-5.16-27.43,0,0,5.35-17.46,23.08-16.32,0,0,19.43-.71,21.68,19.18,0,0,.56,24.34-21.11,20.47,0,0-4.23,1.43-.71,3.29,0,0,9,5.11,22.52-4,0,0,9-3.84,12.39-21.3,0,0,3.1-16.61-12.1-28.92,0,0-21-15.89-42.23,4,0,0-14.64,13.31-11.26,33.93,0,0,2,16.17,12.95,24.62a39.76,39.76,0,0,0,30.05,12.42Z" transform="translate(-52.52 -390.88)"/><path id="cabeza" class="cls-2" d="M182.83,511.72s-9.15-24.51,12.81-42.83c0,0,15.34-12.31,36.17-8.44,0,0,15.23,3.33,20.55,12.59,0,0,.71,1.72-13.37,5,0,0-7.74,2.29-13.37-3.58,0,0-9.43-4.72-16.89-1.86,0,0-15.35,3.3-22.1,30.92,0,0-.28-4.72-.28-10.88C186.35,492.65,182.55,504,182.83,511.72Z" transform="translate(-52.52 -390.88)"/><path id="sombra_cabeza" class="cls-1" d="M251.82,473.78a2.94,2.94,0,0,0-3.12,0s-8,1.12-19.14-4.89c0,0-15.2-6.73-23.65-2.29a4.31,4.31,0,0,1,3,1s-15.63,5-16.75,12.46c0,0,1.55-.86,2.39-1.29,0,0-2.39,3.38-1.41,4.87a1.23,1.23,0,0,0,2,0s8.3-12,20.26-12c0,0,7.85.43,11.53,4,0,0,5.66,4.66,16,1.47s.62-.18.62-.18S249.72,475.09,251.82,473.78Z" transform="translate(-52.52 -390.88)"/><ellipse id="ojo" class="cls-2" cx="162.53" cy="95.15" rx="5.12" ry="5.21"/><path id="pupila" class="cls-1" d="M214.16,481.2a5,5,0,0,1,5.49,2.44,5.15,5.15,0,0,1-.71,5.58s-1.55.14-3.09-3.51C215.85,485.71,215,481.35,214.16,481.2Z" transform="translate(-52.52 -390.88)"/><path class="cls-3" d="M278.82,475.62s-59,13.46-75.36,46.81c0,0-12.11,21-13.51,36.78,0,0-6.48,30.64-8.73,30.64a125.56,125.56,0,0,0,15.48-31.49S195.58,603,148,636.51c0,0,75.16-16.89,76.57-91,0,0-5.63,20.33-7.6,22C217,567.52,210.9,505.39,278.82,475.62Z" transform="translate(-52.52 -390.88)"/><path class="cls-4" d="M173.05,626.63s-2.25,1.58,2-5.58c0,0,25.33-15.74,29.84-32.06,0,0,9.29-26,11.54-52.68,0,0-2-1.72-5.91,12,0,0,4.22-34.93,22.52-47.53,0,0,9.22-6.27,16.57-7.14,0,0-29,18.88-32.62,73.85,0,0,6.76-15.75,7.6-22C224.57,545.47,226.82,599.85,173.05,626.63Z" transform="translate(-52.52 -390.88)"/><path id="ala_superior" class="cls-3" d="M54.25,390.88s-14.64,45.8,41.11,85.88c0,0-24.78-8.58-37.45-28.05,0,0,6.2,28.05,29.28,37.22,0,0,17.46,9.16,35.47,12.88,0,0,44.76,10.3,55.18,24.05,0,0-2.25-35.5-64.75-70.14C113.09,452.72,58.76,425.51,54.25,390.88Z" transform="translate(-52.52 -390.88)"/><path id="sombra_ala_superior" class="cls-4" d="M54.25,390.88s-.84,30.77,69,67.42c0,0,48.06,28.91,54.53,63.84,0,0-12.59-19.18-15.54-19.32,0,0,7.46,13,6.75,17.32,0,0-3.66-13.32-36.74-31.06,0,0-29.56-11.6-34.06-19.76,0,0,9.43,4.87,14.22,6.87,0,0-14.36-9-15.49-12.59,0,0,10.7,6.15,16.47,7.15,0,0-35.47-21.61-38.28-29.34,0,0-18.09-28.31-17.74-34.36C57.35,407.05,53.41,395.17,54.25,390.88Z" transform="translate(-52.52 -390.88)"/><path id="ala_inferior" class="cls-5" d="M70.86,483.64s17.18,16.89,50.68,22c0,0,41.1,8,51.51,24.33,0,0-20.26,6.87-51.09-1.14,0,0,17.88,10,39.83,8.87C161.79,537.74,86.63,556.07,70.86,483.64Z" transform="translate(-52.52 -390.88)"/><path id="sombra_ala_inferior" class="cls-6" d="M70.86,483.64s21.4,18.89,50.68,22c0,0,40.54,7.44,51.51,24.33,0,0-60.24-2.57-69-15.17,0,0,11.26,2.58,16.33,1.72C120.41,516.56,80.72,504.25,70.86,483.64Z" transform="translate(-52.52 -390.88)"/><g id="Pétalos"><path class="cls-7" d="M273.29,405.91c1.11-.93,4.77,4,12.9,7.75a48.76,48.76,0,0,0,11.72,3.58c6.61,1.2,7-.05,10.55,1.19,8.05,2.85,11.55,11.48,11.73,11.93.67,1.72,1.07,3.45,1.17,14.9.08,8.16,1.86,11.06,0,12.79s-5.65,1.55-7.58-.27c-2.64-2.49,0-6.57-2.93-10.13-1.66-2-4.71-3.42-6.45-2.39-1.56.93-1.79,3.67-1.62,5.26.25,2.26,1.41,3.11,1,3.69-1,1.62-10.3-4.86-12.89-2.39-1.54,1.46-.65,6,1.75,8.35,2.14,2.11,4.06,1.14,6.45,3,3.38,2.59,5,8.65,2.94,11.33-2.74,3.61-11.79.66-16.42-1.79a24.52,24.52,0,0,1-11.14-11.33c-4.14-9.08-1.07-18.7,0-22.06,1.92-6,4.08-7.32,4.1-12.52,0-3.77-1.1-7.34-2.34-11.33C274.23,409.07,272.51,406.57,273.29,405.91Z" transform="translate(-52.52 -390.88)"/><path class="cls-7" d="M261,536.48c-2.05-2.51,5-7.84,4.1-15.5-.72-6.39-6.07-6.94-7-13.71s3.65-12.82,5.28-14.91c5.41-6.91,12.77-8.86,17.59-10.13,10-2.64,21.24-1.79,21.69.59.29,1.49-3.62,3.58-5.86,4.77-6.15,3.29-9.86,2.54-10.55,4.77-.62,2,1.63,4.86,4.1,6,3.55,1.6,6.95-.69,7.18-.85,1.83-1.29,2.1-2.84,2.79-2.72,1.79.32,1,11.12,2.34,11.33,1,.14,1.22-5.16,5.28-8.35,2.27-1.79,6.07-3.17,7.62-1.79,1.93,1.72-1.24,6.27-3.52,17.89-1.38,7-.5,6.76-1.76,10.73-1,3-3.43,10.45-10.55,15.5a21.2,21.2,0,0,1-10.55,4.17,17.86,17.86,0,0,1-8.8-1.19c-4.59-1.95-4.33-4.42-8.21-6C266.62,534.89,262.58,538.45,261,536.48Z" transform="translate(-52.52 -390.88)"/><path class="cls-7" d="M346.57,552c-.47-.15-.15-1.32-.69-3.23a11,11,0,0,0-4-5.71c-3.48-2.41-6.35.89-12.31,0-4-.59-8.95-3-11.14-7.15-1.6-3.07-.4-4.59-.59-13.12,0-1.43-.41-5.33-1.17-13.12-1.24-12.71-1.68-15.62,0-16.69s5.23.38,7,2.38c2,2.21,1.09,4,2.93,8.35.68,1.63,3,7.25,5.86,7.16,2.23-.08,4-3.67,4.69-6,1-3.38-.46-4.4.59-7.15,1.42-3.73,4.9-6.16,3.37-.77-.46,1.62.43-3.65.08-2.7-.41,1.1,1.15-.48,10,6.45a59.44,59.44,0,0,1,10.56,10.14c3.85,4.93,7.15,9.17,6.44,14.3-.55,4-3.35,6.94-5.27,9-3.43,3.56-4.79,2.76-8.21,6C349.11,545.36,347.71,552.36,346.57,552Z" transform="translate(-52.52 -390.88)"/><path class="cls-7" d="M399.92,498.32c.4-3.06-2.36-4.15-8.2-12.52-5.34-7.63-4.23-8.41-6.78-10.21-5.49-3.88-9.32.68-21.37-1.11-8.34-1.24-11.62-4.18-15.83-1.79-2.67,1.52-5,4.77-4.29,7,1,3.32,7.86,2.06,9.57,6.09,1,2.24.07,5.5-1.76,6.56-4.09,2.4-12.34-6.59-12.9-6s9.21,17,24,19.08c3.85.54,5.23-.27,14.07.6,6.82.66,8.7,1.4,12.31.59C393,505.73,399.35,502.73,399.92,498.32Z" transform="translate(-52.52 -390.88)"/><path class="cls-7" d="M371.2,391.6c1.47.36,1.28,3.68,2.93,10.74,1.33,5.72,2,8.63,4.1,10.73,2.48,2.52,4.08,1.57,8.21,4.17a22.41,22.41,0,0,1,10,24.45,24.88,24.88,0,0,1-7,11.92,32.55,32.55,0,0,1-9.38,6.56,36,36,0,0,1-10.55,3c-11.19,1.67-16-1.6-19.93,2.06-2.39,2.24-1.7,4.52-4.18,5.64-3.67,1.66-9.62-1.31-9.84-4.15s4.93-3.41,7.56-9.51c.22-.49,2-4.67.59-6-1.23-1.12-4.44.25-6.45,1.78-3.24,2.47-3.22,5.27-4.69,5.37-2.21.15-5-6-5.86-11.92-.23-1.56-.43-3.81,1.17-15.51,1-7,1.45-10.52,2.35-12.52a26.83,26.83,0,0,1,10-11.32c2.15-1.39,6.71-2.92,15.83-6,4.95-1.65,6.9-2.17,9.38-4.17C368.84,394.14,369.78,391.27,371.2,391.6Z" transform="translate(-52.52 -390.88)"/><path class="cls-8" d="M371.82,391.82c.59,0,.92,2.24,2.18,8,1.3,6,1.28,7,2.1,8.64s.69,4.68,6.62,7c9.81,3.85,8.82,5.71,10.14,7.82,1.61,2.55,4.23,5.51,4.13,13.81s-3.71,11.61-4.12,12.4c-1.75,3.42-4.51,5.39-7.42,7.47a35.7,35.7,0,0,1-8.1,4.3c-2.48.92-4,3.14-14.19,2.4-6.18-.45-8.05,1.19-9.57-.21s3.05-2.5,4.69-2.81c20.44-3.9,4.64-1.41,10.08-1.39,6.23,0,4-3.07,6.53-3.81,4.7-1.4,7.27-2.17,9.2-4.68,1.22-1.59,1.68-4,2.56-8.84,1-5.55,1.51-8.32,1-10.4-.8-3.4-3.09-5.56-7.67-9.88-5.45-5.14-7.61-5.38-9.71-9.35a19.22,19.22,0,0,1-2.05-7.28C367.53,398.22,370.49,391.73,371.82,391.82Z" transform="translate(-52.52 -390.88)"/><path class="cls-8" d="M354.39,472.29a3.93,3.93,0,0,1,2.1.3,51.56,51.56,0,0,0,5.86,1.68c4.94.73,11.18-.13,12-.18,6.06-.35,6.67-.68,9,.61,1.42.77,3.35.29,5.27,5.24,1.41,3.62,1.24,2.71,3,5.86,2.43,4.3,6.13,2.08,7.95,8.79a7.59,7.59,0,0,1-.09,5c-1.51,6.28-2.52,3.34-4.44,4.55-2.15,1.36-3.42,1.84-4,2.31-2.83,2.21-5.44.35-11.66-.05a45.5,45.5,0,0,0-12.24.63c-2.18.05-4.59-1.76-6.77-1.92-1.68-.13-2.75-.19-3.25-1-.63-1,2.67-.82,3.72-1.74,1.5-1.33,2.7-2,7.43-1.25,3.21.49.35-.24,6.29.3,5.07.46,7.12.95,11.24.78,3-.13,4.43-.49,5.63-1.56a6.81,6.81,0,0,0,2-4.42c.17-2.76-1.49-4.82-3.32-7-1.54-1.85-2.41-2.34-6.9-6-5.52-4.46-5.1-4.44-6.14-4.94-4.09-1.95-5.69,0-11.5-1C359.27,476.11,354.31,472.46,354.39,472.29Z" transform="translate(-52.52 -390.88)"/><path class="cls-8" d="M346.57,552c.57.17,2-1.87,4.63-5.74a42.2,42.2,0,0,1,7.16-7.62c4.94-4.36,5.32-4.59,7.41-7.73a13.39,13.39,0,0,0,2.58-7.61c0-1.27,1.27-3-3.68-10.81a35.16,35.16,0,0,0-7.47-8.33c-4-3.59-5.47-2.14-9.56-6.1-1.35-1.32-4.28-3.92-6.68-4.29-1.33-.2,1.22,3.09,1,3.8-.12.41-.16-.4,2.83,1.75,2.62,1.89,1.79,2,3.77,3.19,3.34,2.06,5.11,3.16,6.9,5.2a36,36,0,0,1,3.58,5.72c2,3.61,3.07,5.41,3.58,7.27.64,2.36,1.41,5.15.26,7.8-.45,1-.95,1.49-6.9,6-3.85,2.9-4.42,3.29-5.37,4.42a18.59,18.59,0,0,0-3.33,6C346.2,548.09,346,551.8,346.57,552Z" transform="translate(-52.52 -390.88)"/></g><g id="Corona"><path class="cls-9" d="M339.05,477.19a6.14,6.14,0,0,0-2.21-3.18,6.52,6.52,0,0,0-3.26-1.06c-3.08-.34-4.86.92-5.6,0a2,2,0,0,1-.13-1.72c.29-1.37,1.27-1.78,1.95-2.78a5.84,5.84,0,0,0,.26-5.43c-1.42-3-5.33-3.29-6.12-3.31s-3.71-.13-4.69,1.58c-.73,1.28.35,2.33,0,5.44-.06.46-.36,3.07-1.18,3.18-.58.08-.85-1.17-2.21-2.92-1-1.24-2.37-3-4.56-3.44a5.42,5.42,0,0,0-6.25,4.37c-.16,1.17.24,2.06,1,3.84a16.89,16.89,0,0,0,2.47,4.11c1.48,1.78,2.38,2.08,2.35,3.05,0,.22-.07.64-1.69,2.38s-2,1.77-2.48,2.52c-1,1.6-.54,3.53-.26,4.77a7.79,7.79,0,0,0,3.13,5.16c1.49,1,4,1.65,5.34.53.77-.65.49-1.37,1.3-4.23.72-2.56,1.11-3.94,2.08-4.24,1.19-.37,2.74,1,3.52,2.12,1.3,1.86.42,3,1.57,4.9.93,1.57,2.94,3.25,5.08,2.91a4.49,4.49,0,0,0,2.86-2,5.68,5.68,0,0,0,.52-4.76c-.41-1.26-.93-1.25-1.95-3.18-.63-1.2-1.54-2.92-1-3.45s2.23,1.06,5.47,1.33c1.32.11,2.52.21,3.52-.53C339.58,481.89,339.6,479,339.05,477.19Zm-18.2,4.66A6.26,6.26,0,1,1,327,475.6,6.2,6.2,0,0,1,320.85,481.85Z" transform="translate(-52.52 -390.88)"/><ellipse class="cls-10" cx="268.34" cy="83.71" rx="3.05" ry="3.11"/></g></g><g id="texto"><path class="cls-11" d="M440,513.36a148,148,0,0,1,8.73-23.45c1.45-1,10.49-5.83,16.63,2-3.06,5.84-6,12-8.53,18,19.38-6.51,38.28-20.85,34.09-32.85-1.93-5.5-11.54-6.75-26.94-1.56-24,8.09-51.52,29.3-31,52.27-37.49-20.84-8.57-59.86,31.26-65,12.84-1.65,24.06,1.94,29.89,8.56,19.9,22.62-16,50.94-41.69,49.95-4,11.44-6.1,21.42-4.6,26.74-11.32-1.82-12.36-15.24-8.74-30.92a19,19,0,0,1-3.94-3.78A37.64,37.64,0,0,0,440,513.36Z" transform="translate(-52.52 -390.88)"/><path class="cls-11" d="M511.81,495.88c3.88-6,12.82,2.49,10.8,5.77-1.92,3-15.87,35.19-9.48,34.27,3.12-.45,11.12-15.39,16-24.85,8.09-1.63-10.64,28.36-16,29C497.6,542,501.88,516.63,508,503.16a9.25,9.25,0,0,1-4.22-1.54c-2,7.25-5.74,14-8.52,17-.48.52-2.8-1.28-1.75-3.09,3.41-5.9,5.06-9.28,6.8-16.28-7.53-9.54,4.4-11.22,4.65-4.15C505,496.89,510.71,496.77,511.81,495.88Z" transform="translate(-52.52 -390.88)"/><path class="cls-11" d="M563.83,511.07c1.87,7.73-10.14,12.36-14.25,13l-.13,0c-4.06,5-9.17,8.32-13.76,7.17-10.89-2.72-10.65-17.66-5.79-26,7.15-12.27,14.34-12.51,20.34-10.6,9,2.88,8,14.33,3,23.71C555.83,518.26,561,515.33,563.83,511.07Zm-25,13.54a6.11,6.11,0,0,0,3.13-1.76,10.67,10.67,0,0,1-4.39-4.34C536.65,522.08,536.8,524.73,538.85,524.61Zm1.55-13.41c-.61,4,1.28,7.33,4.62,8.42,5.28-6.49,10.44-17.25,5.23-18.93C547.46,499.8,543.3,505.26,540.4,511.2Z" transform="translate(-52.52 -390.88)"/><path class="cls-11" d="M586.27,511.18a2.23,2.23,0,0,1,.14,3.27,123.32,123.32,0,0,1-11.9,8.29c8.6,11.21-4.68,26.15-12,24.92-19.36-3.12,10.67-72.07,17-83.18,3.62-4.17,14.34-2.35,16.5,2.34-7.13,12.95-18.51,36.78-25.94,54.37C575.51,518.77,582.64,513.22,586.27,511.18Zm-23.53,31.53c2,2.79,16.54-12.1,6.37-19.32C565,533.37,562.29,541,562.74,542.71Z" transform="translate(-52.52 -390.88)"/><path class="cls-11" d="M617.54,515.6c-4.59,8.34-17.8,21.32-24.24,20.13-22.58-4.16-7.63-45.58,11.69-43.29,16.66,2,6.2,25.26-9.89,22.18-3.93,9.14-5.82,16.85.65,15.51,4.4-.91,12.45-7.39,21.53-18.92A4.31,4.31,0,0,1,617.54,515.6ZM597,510.54c7.22-.29,13.17-14.37,9.11-13.17C604.26,497.91,600.31,503.79,597,510.54Z" transform="translate(-52.52 -390.88)"/><path class="cls-11" d="M627.27,496.54c-13.46,8,5.56,13.07,11.11,22.3,5-1,7-4.31,9-7.19.9-1.31,3.11,1.36,2.22,2.69-2.29,3.36-2.83,5.79-10.11,7.92,1.69,17.59-22.1,30.59-28.66,20.35-4.24-10.58,11.7-16,17.08-18.63-2.68-7.38-18.59-7.44-13.42-20.78,3.42-8.83,14.8-13.08,22.24-12.69,14.58.76,3,16.54-2.09,15.49C640.5,496.59,633.15,493.05,627.27,496.54ZM627,530.85a13.32,13.32,0,0,0,1.06-3.16c-6.68,2.7-20.69,11.78-11.44,13.26C619.7,541.44,624.63,536,627,530.85Z" transform="translate(-52.52 -390.88)"/><path class="cls-11" d="M681.91,511.07c1.87,7.73-10.14,12.36-14.25,13l-.13,0c-4.06,5-9.17,8.32-13.76,7.17-10.89-2.72-10.65-17.66-5.79-26,7.15-12.27,14.34-12.51,20.34-10.6,9,2.88,8,14.33,3,23.71C673.91,518.26,679.11,515.33,681.91,511.07Zm-25,13.54a6.11,6.11,0,0,0,3.13-1.76,10.67,10.67,0,0,1-4.39-4.34C654.73,522.08,654.88,524.73,656.93,524.61Zm1.54-13.41c-.6,4,1.29,7.33,4.63,8.42,5.28-6.49,10.44-17.25,5.23-18.93C665.54,499.8,661.38,505.26,658.47,511.2Z" transform="translate(-52.52 -390.88)"/><path class="cls-11" d="M695.59,495.88c3.88-6,12.83,2.49,10.8,5.77-1.91,3-15.86,35.19-9.48,34.27C700,535.47,708,520.53,713,511.07c8.09-1.63-10.64,28.36-16,29-15.56,1.93-11.29-23.47-5.21-36.94a9.21,9.21,0,0,1-4.21-1.54c-2,7.25-5.75,14-8.52,17-.49.52-2.8-1.28-1.75-3.09,3.41-5.9,5.06-9.28,6.8-16.28-7.53-9.54,4.4-11.22,4.65-4.15C688.77,496.89,694.49,496.77,695.59,495.88Z" transform="translate(-52.52 -390.88)"/><path class="cls-11" d="M743.75,499.69a15.2,15.2,0,0,1-.27,2.85,8.52,8.52,0,0,1,6.13,4.39c-4.33,10.64-6.75,16.4-6.75,17.83,0,.24.07.36.2.36a.87.87,0,0,0,.42-.19c1.34-.94,2.94-.14,12.53-13.86.44.31,1.18.94,1.18,1.56,0,4.46-7.93,15.65-13.87,15.65h-.19a3.59,3.59,0,0,0,.35.12c-8.61-1.37-11.5-5.32-11.5-10.53,0-.35,0-.7,0-1.06-4.77,8.16-10.37,18.1-14.57,18.1a2.67,2.67,0,0,1-.75-.11c-4.35-1.38-6.2-5.63-6.2-10.94,0-13.5,10.37-32.37,25.12-32.37C741.81,491.58,743.75,495.5,743.75,499.69Zm-24.57,30c1.67,0,7.94-12.3,16.31-25a6.56,6.56,0,0,1,3.86-2.13c-.14-1.71,0-3.54-2.08-3.54-5.75,0-18.6,21.2-18.6,29.11C718.67,528.64,718.72,529.7,719.18,529.7Z" transform="translate(-52.52 -390.88)"/><path class="cls-11" d="M780.1,541.69c0,1.11.3,1.72.95,1.72a1.86,1.86,0,0,0,.82-.23c4.53-2.13,12.79-21.32,18.39-32.11A8,8,0,0,1,801.4,515a5.81,5.81,0,0,1-.61,2.6c-6.41,13.2-14.23,30.13-19.18,30.13h-.28c-6.75-.79-9.33-6.31-9.33-14.15a53.29,53.29,0,0,1,.94-9.31c-3.89,5.59-8,11-11.62,11a3.37,3.37,0,0,1-1-.16c-5.29-1.66-7.61-7.5-7.61-14.36,0-11.82,6.88-26.69,17.33-28.55a20.29,20.29,0,0,1,3.84-.42c4.12,0,6.31,1.77,7.36,4.29,5.06-13.6,10.66-25.72,12.53-30.26a8.19,8.19,0,0,1,6.36-2.43c4.14,0,8.6,2,9.76,4.7C802.36,484.62,780.1,532.05,780.1,541.69Zm-4.18-42.35c-4.69,0-13.86,20.43-13.86,28.35a6.06,6.06,0,0,0,.22,1.77c.14.49.37.73.7.73,1.57,0,5.36-5.38,12-15.39.28-1,2.85-8.14,2.85-12.35,0-1.8-.47-3.07-1.79-3.11Z" transform="translate(-52.52 -390.88)"/><path class="cls-11" d="M834.64,511.07c1.87,7.73-10.14,12.36-14.25,13l-.13,0c-4.06,5-9.17,8.32-13.76,7.17-10.89-2.72-10.65-17.66-5.79-26,7.15-12.27,14.34-12.51,20.34-10.6,9.05,2.88,8,14.33,3,23.71C826.65,518.26,831.84,515.33,834.64,511.07Zm-25,13.54a6.09,6.09,0,0,0,3.12-1.76,10.73,10.73,0,0,1-4.39-4.34C807.46,522.08,807.62,524.73,809.67,524.61Zm1.54-13.41c-.61,4,1.28,7.33,4.62,8.42,5.28-6.49,10.44-17.25,5.23-18.93C818.27,499.8,814.11,505.26,811.21,511.2Z" transform="translate(-52.52 -390.88)"/><path class="cls-11" d="M898.75,515.6c-4.6,8.34-17.8,21.32-24.24,20.13-22.58-4.16-7.63-45.58,11.68-43.29,16.67,2,6.2,25.26-9.88,22.18-3.93,9.14-5.82,16.85.65,15.51,4.4-.91,12.45-7.39,21.53-18.92A4.31,4.31,0,0,1,898.75,515.6Zm-20.56-5.06c7.23-.29,13.18-14.37,9.12-13.17C885.47,497.91,881.52,503.79,878.19,510.54Z" transform="translate(-52.52 -390.88)"/><path class="cls-11" d="M903.43,495.56c3.41-6.17,15.07-4.06,14.84,1.12-2,2.86-9.72,19.42-11.56,22.25,5.74-6.67,8.68-9.4,13.69-12.88,4.44-4,14.31-1.44,10.82,6.58-4.32,10.25-4.89,13.94-3.16,13.59,3-.6,11.18-12.29,13.87-15.15,3.31,2.68-9.14,17.75-12.19,18.31-10,1.84-12.22-7.44-11.48-15.15.54-5.62-18.17,20.18-18.8,21.14C887.26,532.07,900.28,501.75,903.43,495.56Z" transform="translate(-52.52 -390.88)"/><path class="cls-11" d="M287.52,632.55A195.71,195.71,0,0,1,300,603.17c1.88-1.25,13.51-7.29,20.67,2.49-4.34,7.5-8.49,15.37-12.15,23.09,24.83-7.83,49.76-26.28,44.38-41.64-2.4-6.88-14.42-8.44-33.67-2-30,10.12-64.41,36.63-38.8,65.35-46.86-26.06-10.71-74.83,39.07-81.25,16.06-2.08,30.08,2.41,37.37,10.69,23.31,26.5-14.67,59.25-45.93,62.25,10.78,21.83,33.15,25.94,39.74,20.9.45,12.49-34.33,30-49.69-16.91-4.85,12.69-7.43,23.58-6,29.63-14.34-2.33-14.46-19.78-8.49-39.92a23.59,23.59,0,0,1-3.3-3.46C284.58,632.54,286,632.57,287.52,632.55Z" transform="translate(-52.52 -390.88)"/><path class="cls-11" d="M368,646.82c2.15.95,8.73-5.44,16.29-17.21,6.34,3.34-13.55,25.24-17.9,24-17.76-5.21-5-30.78-1.16-40.83,3.35-7.59,16.95.36,14.44,6.22C372.66,636.12,365.39,645.67,368,646.82Zm19-45.27c0,4-3.87,7.16-8.63,7.16s-8.63-3.21-8.63-7.16,3.86-7.16,8.63-7.16S387,597.59,387,601.55Z" transform="translate(-52.52 -390.88)"/><path class="cls-11" d="M415.5,596.69l25.6.11c1.91,0,.14,6.66-2.5,6.66l-26.15.06c-12.93,29.12-30.2,70-22.55,66.32,5.58-2.69,15.83-26.77,22.88-40.23,2.83,0,3.18,2.94,1.67,6-8.27,16.84-19.17,40.61-25.31,39.89-21.25-2.48-9.24-42.12,2.55-72H379.11c-5.15,0-1.79-7.06.85-7.06l14.49.23c4.48-10.86,6.67-14.81,8.34-18.89,4.87-5.53,18.38-10.26,22.1-2C424.21,577.5,420.41,585.74,415.5,596.69Z" transform="translate(-52.52 -390.88)"/><path class="cls-11" d="M406.23,649c0-8.43,4.77-20.93,11-33.08a11.55,11.55,0,0,1,7.29-2.37c4.1,0,7.83,1.79,7.83,4.3s-1.94,4.09-4.85,9.75c6.63-7.64,15.87-19.48,18.64-22.26a8.28,8.28,0,0,1,5.92-2.55c4,0,7.57,3,7.57,6.91a7.41,7.41,0,0,1-.66,3c-.56,1.26-5.12,14-5.74,15.11,3-3.65,9.55-10,15.63-10.34.24,0,.47,0,.71,0,4.8,0,8.21,2.81,8.21,6.11a5.28,5.28,0,0,1-.65,2.48c-3.87,7.34-8.41,16.1-8.41,19.9a2.77,2.77,0,0,0,.17,1.06,1.37,1.37,0,0,0,1.36.94c3.42,0,11.59-8.68,16.37-18.25,1.6.39,2.75,1.29,2.34,3.17-1.65,7.4-11.78,19.54-20.11,19.54h-.34c-6.07-.24-11.29-4.33-11.29-12.52a31.26,31.26,0,0,1,3-12.29c-15.07,12.61-16.58,24.64-19.73,25.6-3.76-.78-6-3.18-6-8.39,0-5.65,2.62-14.61,8.74-28.37-7.54,8.17-25.65,33.34-30.37,42.29-.26-.13-.76.58-2.91-.82C407.34,656.13,406.23,653,406.23,649Z" transform="translate(-52.52 -390.88)"/><path class="cls-11" d="M529.23,629.61c2.33,9.67-12.68,15.46-17.81,16.21l-.16,0c-5.09,6.3-11.47,10.41-17.21,9-13.62-3.4-13.31-22.07-7.24-32.49,8.94-15.34,17.93-15.64,25.43-13.26,11.31,3.6,10,17.92,3.71,29.65C519.23,638.61,525.73,635,529.23,629.61ZM498,646.54c1-.06,2.4-.88,3.9-2.19a13.42,13.42,0,0,1-5.48-5.44C495.26,643.38,495.44,646.69,498,646.54Zm1.92-16.76c-.75,5,1.61,9.16,5.78,10.53,6.61-8.12,13.06-21.56,6.54-23.66C508.76,615.53,503.57,622.36,499.93,629.78Z" transform="translate(-52.52 -390.88)"/><path class="cls-11" d="M540.23,611.46c-16.84,10,6.95,16.34,13.89,27.88,6.26-1.23,8.77-5.4,11.2-9,1.12-1.65,3.89,1.7,2.77,3.35-2.86,4.21-3.54,7.24-12.64,9.91,2.11,22-27.62,38.24-35.83,25.44-5.3-13.23,14.63-20,21.36-23.3-3.35-9.21-23.24-9.29-16.78-26,4.27-11,18.5-16.35,27.8-15.86,18.23,1,3.82,20.68-2.61,19.36C556.77,611.52,547.58,607.09,540.23,611.46Zm-.3,42.89a16.91,16.91,0,0,0,1.34-4C532.91,653.78,515.4,665.12,527,667,530.76,667.58,536.93,660.75,539.93,654.35Z" transform="translate(-52.52 -390.88)"/><path class="cls-11" d="M664.78,568.62c23.86-.45,18.17,38.64-5.63,45.37,6.2-13.32,19.94-38.47,10.38-37.61-28.14,2.55-73.85,94.81-32.62,96.74,9.8.46,26.35-17.35,40.18-43.16,5,11.94-26.89,51.08-42.68,49.09C574.17,671.44,612.38,569.6,664.78,568.62Z" transform="translate(-52.52 -390.88)"/><path class="cls-11" d="M712.65,615.39a19.34,19.34,0,0,1-.34,3.56,10.69,10.69,0,0,1,7.67,5.5c-5.42,13.3-8.44,20.49-8.44,22.28,0,.3.08.45.25.45a1,1,0,0,0,.52-.24c1.67-1.17,3.67-.17,15.66-17.33.56.4,1.47,1.18,1.47,2,0,5.57-9.91,19.56-17.33,19.56h-.24c-.08,0,.51.16.44.15-10.77-1.72-14.37-6.65-14.37-13.16,0-.44,0-.88,0-1.33-6,10.2-13,22.63-18.22,22.63a3.34,3.34,0,0,1-.94-.14c-5.44-1.73-7.74-7-7.74-13.68,0-16.88,13-40.46,31.4-40.46C710.23,605.26,712.65,610.16,712.65,615.39ZM681.94,652.9c2.08,0,9.92-15.36,20.38-31.28a8.31,8.31,0,0,1,4.83-2.67c-.18-2.14.06-4.41-2.61-4.41-7.18,0-23.24,26.49-23.24,36.38C681.3,651.58,681.36,652.9,681.94,652.9Z" transform="translate(-52.52 -390.88)"/><path class="cls-11" d="M746.74,610.64c4.85-7.53,16,3.11,13.51,7.21-2.4,3.77-19.84,44-11.86,42.83,3.91-.56,13.9-19.24,20.07-31.07,10.11-2-13.31,35.47-20,36.3-19.45,2.41-14.11-29.34-6.51-46.17a11.61,11.61,0,0,1-5.27-1.94c-2.46,9.07-7.18,17.48-10.65,21.22-.61.65-3.5-1.6-2.19-3.86,4.26-7.38,6.33-11.6,8.5-20.35-9.41-11.92,5.5-14,5.81-5.19C738.21,611.89,745.37,611.75,746.74,610.64Z" transform="translate(-52.52 -390.88)"/><path class="cls-11" d="M777,646.82c2.16.95,8.74-5.44,16.3-17.21,6.33,3.34-13.56,25.24-17.91,24-17.75-5.21-5-30.78-1.16-40.83,3.36-7.59,17,.36,14.44,6.22C781.64,636.12,774.37,645.67,777,646.82Zm19-45.27c0,4-3.87,7.16-8.63,7.16s-8.63-3.21-8.63-7.16,3.87-7.16,8.63-7.16S796,597.59,796,601.55Z" transform="translate(-52.52 -390.88)"/><path class="cls-11" d="M788.92,638.62c0-20.16,17.29-56.36,22.85-67,1.94-2.07,5.07-3,8.29-3,5.05,0,10.31,2.26,11.54,5.82a481.56,481.56,0,0,0-26.66,52.31C811.26,615.9,820.05,607,827.3,607a8.09,8.09,0,0,1,2.8.49c5.93,2.26,8.19,6.33,8.19,11.49,0,4-1.33,8.57-3.36,13.5a39.94,39.94,0,0,1,9.83-2.5,2,2,0,0,1-.17,2.5c-1.17,1.5-6.5,3.16-12.16,5.33-10.34,20.42-21.73,27.12-29,27.12-4.51,0-7.4-2.61-7.4-6.12a9.56,9.56,0,0,1,2.54-6c4.33-5.33,13.33-10.33,19.49-13.33,4.92-10.1,8.36-20.31,8.36-24.11,0-1-.22-1.51-.7-1.54h-.25c-8.92,0-26.92,34-29.07,38.32C791,650.73,788.92,645.65,788.92,638.62Zm25.85,7.32" transform="translate(-52.52 -390.88)"/><path class="cls-11" d="M883.24,635.28c-5.74,10.43-22.25,26.66-30.3,25.17-28.23-5.21-9.54-57,14.61-54.12,20.83,2.47,7.75,31.58-12.36,27.73-4.91,11.42-7.28,21.06.81,19.38,5.5-1.14,15.57-9.23,26.91-23.65C883.77,630.63,884.3,633.35,883.24,635.28ZM857.55,629c9-.36,16.47-18,11.39-16.47C866.64,613.16,861.7,620.52,857.55,629Z" transform="translate(-52.52 -390.88)"/><path class="cls-11" d="M889.09,610.23c4.26-7.71,18.83-5.08,18.56,1.4-2.48,3.58-12.15,24.28-14.46,27.82,7.17-8.34,10.85-11.75,17.11-16.11,5.56-5,17.89-1.8,13.54,8.23-5.41,12.82-6.13,17.42-4,17,3.72-.74,14-15.36,17.34-18.94,4.13,3.35-11.42,22.2-15.24,22.9-12.53,2.3-15.27-9.3-14.35-18.94.68-7-22.71,25.22-23.51,26.43C868.88,655.87,885.15,618,889.09,610.23Zm31.47-18.47c2.26,1.85,4.67,3.82,12.54-2.87,11.86-10,3.12,24.63-16.39,8.66-2-1.61-3.83-3.12-10,2.71C896.07,610.34,902,576.56,920.56,591.76Z" transform="translate(-52.52 -390.88)"/><path class="cls-11" d="M978.37,629.61c2.33,9.67-12.68,15.46-17.82,16.21l-.16,0c-5.08,6.3-11.47,10.41-17.2,9-13.62-3.4-13.32-22.07-7.24-32.49,8.94-15.34,17.92-15.64,25.42-13.26,11.32,3.6,10,17.92,3.72,29.65C968.37,638.61,974.87,635,978.37,629.61Zm-31.23,16.93c1-.06,2.41-.88,3.91-2.19a13.44,13.44,0,0,1-5.49-5.44C944.39,643.38,944.58,646.69,947.14,646.54Zm1.93-16.76c-.76,5,1.6,9.16,5.78,10.53,6.6-8.12,13-21.56,6.53-23.66C957.9,615.53,952.7,622.36,949.07,629.78Z" transform="translate(-52.52 -390.88)"/><path class="cls-11" d="M989.36,611.46c-16.83,10,7,16.34,13.89,27.88,6.27-1.23,8.78-5.4,11.21-9,1.12-1.65,3.88,1.7,2.76,3.35-2.85,4.21-3.54,7.24-12.64,9.91,2.12,22-27.61,38.24-35.82,25.44-5.31-13.23,14.62-20,21.35-23.3-3.35-9.21-23.24-9.29-16.78-26,4.28-11,18.5-16.35,27.81-15.86,18.23,1,3.81,20.68-2.62,19.36C1005.9,611.52,996.71,607.09,989.36,611.46Zm-.29,42.89a16.39,16.39,0,0,0,1.33-4c-8.36,3.38-25.87,14.72-14.3,16.57C979.89,667.58,986.06,660.75,989.07,654.35Z" transform="translate(-52.52 -390.88)"/></g></svg>